<svg xmlns="http://www.w3.org/2000/svg" width="1024" height="1024" viewBox="0 0 1024 1024"><path fill="#16386c" d="M654.7 96.3q7.2 7.1 12.3 15.7l4-2c-.5-3.7-1.1-6.7-3-10 1-1 1-1 4.3-1.2a13 13 0 0 1 10.5 5.2c2.5 4 2.8 8.3 2.2 13-2.5 5-5 6.7-10 9l5.8 3 5 2.7 13.3 7c13.9 7 26.8 14.2 33.1 29.2 1.8 5.6 2.4 9.7-.2 15.1-2.3 2-4.2 2-7.2 2.6-5.3-.8-8.4-3.6-11.8-7.6v-2a149 149 0 0 0-11-5l1.4 3.2c2.5 6.6 4 15 1.5 21.9-2.3 3.5-4 5-7.9 6.9-4 .8-7 .6-10.5-1.7a31 31 0 0 1-6-7.6 44 44 0 0 0-29.6-21.4c-7-1.5-13.6-1.8-20.7-1.8h-3.8a169 169 0 0 0-60.6 14.4 201 201 0 0 0-67.1 44.5l-4.8 4.5c-36.5 34.3-53.6 84.3-56.9 133.1l-2-1v-2h-2c-3.3 16.2 5.4 32.7 13.8 46.2 3.2 4.7 7.2 8.7 11.2 12.8l3.3 4c19.2 21.9 50.4 33.9 78.7 37q6.9.3 13.8.2h6.1q12 0 23.7-1 8.2-.4 16.4-.2l-1.4-2.3a16 16 0 0 1-2.6-8.7c1.8-5.4 3.9-10.4 9.2-13a56 56 0 0 1 22.7-3.5h3.9c23.2.5 43 7.7 63.2 18.5l3.1 1.6c9 5 16.9 11.2 24.9 17.4-1.2-5.7-3-8.7-7.1-13l-1.4-1.4-3.5-3.6 1-3a39 39 0 0 1 23.4 14.4c2.6 4.2 4.3 8.8 6 13.4 3.2 8 6.8 14 14.6 18.2a31 31 0 0 0 23-.6c21.6-9.4 37.3-32.8 45.8-54a176 176 0 0 0 10.5-48.9c2.8-33-2-66.1-12.3-97.5l-1-2.8a327 327 0 0 0-51.9-97.1q-8.8-12-18.7-23.3C749 171 749 171 747 168c4.5 1.5 7.9 4 11.5 7l1.9 1.4 3.8 3.1 4.9 4q10.8 9 20.7 19l2.6 2.6c25.8 26 44.8 58.7 59.6 91.9h3v-4l3 1c1 5.9 1 5.9 1 7l1-3h4c-2.3-7.7-5.6-14.7-9-22l-2.9-6.3-1.2-2.7-.9-2h2l4.8 6.9 1.4 2.2a340 340 0 0 1 53 177.8v20.8q.1 21.6-2.2 43.3l-.2 2.2a409 409 0 0 1-53.3 161.5 428 428 0 0 1-70.2 91.1l-2.7 2.7Q775.1 781 767 788l-3 2.7a369 369 0 0 1-75.5 49.6 399 399 0 0 1-295.2 23.6 378 378 0 0 1-108.6-56.6l-4.8-3.6a331 331 0 0 1-25.2-20.4q-12.6-10.8-24.2-22.6l-1.6-1.6A296 296 0 0 1 212 741l-1.5-1.8c-8.7-10-16-20.7-23.1-32l-3.8-5.8-2-3-1.6-2.5-1-1.9 1-2 1.7 2.3c6.8 9.2 14.4 17.5 22.3 25.7l1.5 1.6q8.5 8.8 18 16.3l6.5 5.7c4 3.6 8.5 6.4 13.1 9.3l6.6 4C290 782.3 290 782.3 310 787a17 17 0 0 0-5.4-6.7c-4.6-4-7-9.5-8.3-15.5 1-4.2 3.5-7 6.7-9.8 9.2-3 16.6.4 25 4l-.5-3.7c-1.8-16.9-1.8-16.9 1.5-24.3 2.8-3 6-5.8 10.2-6.2h5.3c2.7.2 4.2.8 6.5 2.2 2.3 2.8 3 4.4 3 8a14 14 0 0 1-6 8 81 81 0 0 1-10 3c.3 8.8.6 16.8 4 25l1.2-3c3.9-9 9-16.5 18.4-20.3a18 18 0 0 1 14.8 2.2c2.6 2.1 2.6 2.1 4.6 4.1-.4 3.6-.4 3.6-1 7h-3c2.5 8.2 8 11.7 15.2 15.8 33.3 17 74.1 13.7 108.8 2.9q11.9-4 23-9.7l3-1.4a145 145 0 0 0 72-87.6l1-3.2c6.4-25.6 2.9-54.8-10.2-77.7-2.4-4-2.4-4-5.8-5.1h-8l.4 2.6c2.4 14.8 2.4 14.8.6 22.4-3-1.5-3-3.5-4-6.6a121 121 0 0 0-63.7-65.7A258 258 0 0 0 486 539l-3.5-1.1c-52.7-17-112.5-9.8-161.4 15.2-31.6 16.7-60.1 40.4-71.3 75.4a128 128 0 0 0 11.8 97.5 137 137 0 0 0 25 30.6c1.4 1.4 1.4 1.4 2.4 4.4-24-1.2-46.7-23.1-64-38l-2.6-2.2c-7-6.2-13.2-12.9-19.4-19.8l-1.4-1.6A232 232 0 0 1 181 672l-1.2-1.9A338 338 0 0 1 129 549l-.6-3.4Q121 505.2 122 464v-2.4a383 383 0 0 1 19.1-108.2 389 389 0 0 1 22.1-56.4 428 428 0 0 1 19.8-37l2.7-4.7a344 344 0 0 1 76.2-93c29.8-27.4 66-48.4 103.1-64.3l2.7-1.2c75.3-32.3 188.3-57.5 287-.5M853 299l1 2Zm13 3 1 2ZM575 592l1 2Z"/><path fill="#d85016" d="M747 168c4.5 1.5 7.9 4 11.5 7l1.9 1.4 3.8 3.1 4.9 4q10.8 9 20.6 19l2.7 2.6c25.8 26 44.8 58.7 59.6 91.9h3v-4l3 1c1 5.9 1 5.9 1 7l1-3h4c-2.3-7.7-5.6-14.7-9-22l-2.9-6.3-1.2-2.7-.9-2h2a108 108 0 0 1 6.2 9.1 340 340 0 0 1 53 181.1v17.5q.1 21.6-2.2 43.3l-.2 2.2a409 409 0 0 1-53.3 161.5 429 429 0 0 1-70.2 91.1l-2.7 2.7q-7.5 7.6-15.6 14.5l-3 2.7a370 370 0 0 1-73 48.3l-2.5 1.3a399 399 0 0 1-295.2 23.6A378 378 0 0 1 335 839l-2.1-1.1a363 363 0 0 1-53-34.2 328 328 0 0 1-25.2-20.5 368 368 0 0 1-25.8-24A296 296 0 0 1 212 741l-1.5-1.8c-8.7-10-16-20.7-23.1-32l-5.8-8.8-1.6-2.5-1-1.9 1-2 1.7 2.3c6.8 9.2 14.4 17.5 22.3 25.7l1.5 1.6q8.4 8.8 18 16.4l6.5 5.6c4 3.6 8.5 6.4 13.1 9.3l6.6 4C290 782.4 290 782.4 310 787a16 16 0 0 0-5.4-6.7c-4.6-4-7-9.5-8.3-15.5 1-4.2 3.5-7 6.7-9.8 9.1-3 16.6.4 25 4l-.5-3.7c-1.8-16.9-1.8-16.9 1.5-24.3 2.9-3 6-5.9 10.2-6.2h5.3c2.7.2 4.2.8 6.5 2.2 2.3 2.8 3 4.4 3 8-1.3 4-2.6 5.5-6 8a79 79 0 0 1-10 3c.3 8.8.6 16.8 4 25l1.2-3c3.9-9 9-16.5 18.4-20.3a18 18 0 0 1 14.8 2.2c2.6 2.1 2.6 2.1 4.6 4.1-.4 3.6-.4 3.6-1 7h-3c2.5 8.2 8 11.7 15.2 15.8 33.4 17 74.1 13.7 108.8 2.9q11.9-4 23-9.7l3-1.4a145 145 0 0 0 72-87.6l1-3.2c6.4-25.6 2.9-54.8-10.2-77.7-2.4-4-2.4-4-5.8-5.1h-8l.4 2.6c2.4 14.8 2.4 14.8.6 22.4-3-1.5-3-3.5-4-6.6-6.1-16.2-16.7-30.3-28.8-42.5l-1.7-1.7a34 34 0 0 0-7.2-5.7c-2.8-1.8-3.6-3.7-5.3-6.5-2.3-1.5-2.3-1.5-4.8-2.8-3.7-2-5.8-3.7-8-7.2-3.2-4.5-6.9-6.2-11.8-8.4q-6.6-3.1-13-6.8-6.1-3.2-12.4-5.8c2.7-1.3 4.2-.6 7 .3q5.1 2 10 4.7v-2l-2.4-.9C492 527 492 527 490 525c13.7.3 27 5 40 9v-1c4.3-.3 7.2.7 11.1 2.5 5.6 2.5 5.6 2.5 8.9 2.5l-10-4v-1c7 .3 12 1.5 18 5l2-2v2h2v2l5 2-2.2-2.2-5.4-5.5C557 532 557 532 554 530l-1 2-5-3v-2q-11.1-5-23-8v-1c5.9-.2 11.2.4 17 1.5l2.4.4 5.6 1.1-3-2 2-.4 2-.6 1-2h3v-2c-1 0-1 0-2.7.6-3 .5-5.3.1-8.3-.6l-1-2 2-1-1.7-.3-7.7-1.1-2.8-.5q-1.2 0-2.5-.4l-2.4-.3c-1.9-.4-1.9-.4-2.9-1.4l-6.6-1-3.6-.6-2.8-.4v-1a285 285 0 0 1 32 1.3l2.1.1c8.9.9 17.4 2 26 4.6 5 1.4 10.3 2.1 15.6 3 47.9 7.6 47.9 7.6 63 26 1.8 2.8 2.4 4.8 2.3 8-1 1.8-1 1.8-3 3-3.7.7-3.7.7-7 1 3.3 4.8 6 7 11.7 8.6 3.8.6 6 0 9.3-1.6 6-4.7 7.5-10.8 9-18 18 0 36.3 11.9 49 24 3.9 5 3.9 5 4.3 8.5 1 3.6 3.4 4.8 6.4 6.9q5.5 4 10.3 8.6c-3.5 0-5.3-1.2-8.2-2.9-8.3-4.6-15.2-7-24.8-5.1-4.7 2.3-4.7 2.3-6 5-.3 2-.3 2-.4 4.6l-.1 2.4c1.5 8.7 7.6 14.5 13.8 20.3 11.4 11 22.6 24 23.7 40.7l-3.2-2c-3-1.8-5.2-2.4-8.8-2-1.6 4.9 1.4 8.6 3.5 13 6.9 16.5 6 40.6-.5 57l-1.3 3.2A53 53 0 0 1 717 741h-3l1-1.4a86 86 0 0 0 5.6-74.6l-.9-2.7c-3-9-3-9-6.7-12.3-2.3-.3-2.3-.3-4.6 0l-2.4.4c-2 .6-2 .6-4 2.6-.2 2.2-.2 2.2-.2 4.9v2.6q.1 3.3 1.2 6.5a23 23 0 0 0 14 0c.5 34.1-5.9 61.2-29.7 86.7-10.3 10.2-22 17-35.1 23l-3 1.5q-6.5 3-13.2 5.8c5.7-6 12.2-10.8 19-15.3 4.6-3.1 7.5-6.6 10.8-11q3.9-4.7 8.4-8.8c11-10.8 11-10.8 11.1-17.9l-.3-3a9 9 0 0 0-7-1.8c-3.1.8-4.2 1.3-6 3.8.1 2.4.1 2.4.7 5.2.5 4.2.5 6.5-2 10L667 749l-2.2 2.1a263 263 0 0 1-172 68.3h-2.3c-15.4 0-30.7-1.3-45.6-5l-3.2-.8c-21-5.4-43.2-11.7-59.7-26.6l-2.1-1.9A41 41 0 0 1 367 757c-4.7-1.1-4.7-1.1-7.5 0-8 6.4-10.7 16.2-12.5 26-4.5-1.2-7-2.6-10-6-5.2-5.4-14.6-14.6-22.3-15.2h-5.4c-2.3.2-2.3.2-4.3 2.2.2 2.9.4 5.1 2 7.5 3 2.3 6.5 2.8 10 3.7 10.6 2.9 18.2 7.1 23.9 16.9l1.6 3q2.8 5.3 6.5 9.9l-2-.6-2.5-.8-2.5-.7c-6.8-2-12.9-3.2-20-3.4-9.9-.3-18.1-2.1-27.1-6.5l-2.5-1.2q-11.8-6-22.4-13.8l-1.7-1.2q-10.7-8-20.6-16.9a36 36 0 0 0-8.7-5.9c38 36.1 85.3 72.5 137 85l2.1.5c15.3 3.6 30.5 3.7 46 3.6h3q21.8 0 43.7-.5l2.6-.1q15.8-.3 31.6-1.5l-1 2a114 114 0 0 1-10.4 1.9l-12.9 2q-6.3 1.1-12.7 2.1h6v2l3-1v2l3-1 6-.6a192 192 0 0 0 32.4-6l5.3-1.4q20-5.1 39.9-11l18.8-5.4 3.5-1c14-4 27.5-4.9 42-4.7h4.7l11.4.1-24-4c1-2 1-2 2.7-2.6q10.5-2 21-3.2a98 98 0 0 0 32-10.6l1.9-.9A266 266 0 0 0 754 745l-2 1.3C725.7 763 698.5 780 668.4 789l-2.2.7c-3.3.9-4.9 1.3-8.2.2l2.3-1q23.6-11.1 46.3-23.6l6.8-3.8a368 368 0 0 0 61.9-40.2q7.6-6 14.4-13.2c1.3-1.2 1.3-1.2 3.3-1.2l.7-1.7c2.3-4 5.8-7.2 9-10.6 2-2.3 3.2-4 4.3-6.7a50 50 0 0 0-11 8.6 198 198 0 0 1-18.1 15l-6.4 4.8A224 224 0 0 1 735 740c1.6-5.2 3.9-9.7 6.5-14.4 4.6-10.9 5.3-22.2 6.2-33.9l.4-4.8.9-11.9h1l.9 9.3.2 2.6.3 2.6.2 2.3a17 17 0 0 0 2.4 6.2l2 1-.4 4.3-.3 2.4c-.3 2.3-.3 2.3-1.3 5.3 6.3-16.8 3.3-35.1-1.4-51.8A116 116 0 0 1 750 645c6.8 2.6 10.3 10.5 13.4 16.7 3.7 9.6 3.4 20.1 3.6 30.3l3-8.6.8-2.4a65 65 0 0 0-2.9-48.2c-.9-2.8-.9-2.8.1-5.8h2l-2-11a33 33 0 0 1 5.6 11.3l.6 2.1c2.1 7.1 3 14.2 3.8 21.6 3.5-23.8 1.9-45.4-12.7-65.4l-3.1-3.9a14 14 0 0 1-2.2-5.7h2a850.6 850.6 0 0 0 4.8 5.5l1.2 1.5q-2-10.6-5-21c7 6.6 10.4 13.5 14 22.4l1.3 3.3c4.3 11.1 6.7 22.5 8.7 34.3 3.1-4.7 3.2-8.7 3.6-14.2l.2-3.9.2-2.9c2.4 3.6 2.3 6.4 2.3 10.6V624c0 13-.7 25.5-4.3 38.1l-.7 2.3q-2.3 8-5.3 15.7l-.8 2.2c-3.2 8.7-7 16.7-12.3 24.3-1.9 2.8-3.4 5.1-3.9 8.5l2.1-2 2.9-2.6 1.5-1.4q4.1-3.8 8.4-7.3c24-21 42.4-46.3 46.1-78.7 1.2-20.6-.6-41.5-14.4-58-3-3.8-4.7-8.3-6.3-13a53 53 0 0 0-26.5-30.4l-8-3.8-7.8-3.8 1 1.5c17.2 28.7 17.2 28.7 17 41.8v4.7h-3a52 52 0 0 1-5.4-10.4 203 203 0 0 0-25-45.4q-2.2-3-3.6-6.2h-2l-3-3.4c-23.6-27.5-63.5-50.2-100-53.6q-5.5-.3-11-.3h-2.6c-6.3 0-12.3.5-17.9 3.7A18 18 0 0 0 607 460c1.7 2 3.3 3.3 5.5 4.8l1.5 1.2v3h-6l-1-3-3.4.1c-3.6-.1-3.6-.1-5.6-2.1h2l-1-2c-2.3-5-3.8-8.7-1.9-14.2a17 17 0 0 1 10.7-10 56 56 0 0 1 20.1-2.3h3.9c23.2.5 43 7.7 63.2 18.5l3.1 1.6c9 5 16.9 11.2 24.9 17.4-1.2-5.7-3-8.7-7.1-13l-4.9-5 1-3a39 39 0 0 1 23.4 14.4c2.6 4.2 4.3 8.8 6 13.4 3.2 8 6.8 14 14.6 18.2a31 31 0 0 0 23-.6c21.5-9.4 37.3-32.8 45.8-54 5.5-14.6 8.7-30 10.2-45.4l.3-3.5c2.8-33-2-66.1-12.3-97.5l-1-2.8a327 327 0 0 0-51.9-97.1 349 349 0 0 0-18.7-23.3C749 171 749 171 747 168m106 131 1 2Zm13 3 1 2ZM575 592l1 2Z"/><path fill="#f8f8ec" d="M317 339c1.3 2.6.9 4 .5 7a99 99 0 0 0 19 69.3q4.4 4.7 9.5 8.7l-1.3-2.5q-5.1-9.9-9.1-20.2l-.8-2.1c-1.8-5-1.8-5-1.8-7.2 12 4.3 16.8 14.3 22 25l4.1 8.4 1 2c3 6 6.5 11.2 11.3 16l1.6 1.6v2h2v2l1.7.8 6.6 3.7 2 1.3 1.7 1.2v2l1.7.3c2.9.9 5 2.3 7.4 4q10 6.4 20.9 10.7l-1-1.9q-.8-1.2-1.5-2.5l-1.4-2.4C412 464 412 464 412 462h-2l-1-3c5 .6 9.2 3 13.8 5.2a197 197 0 0 0 67.5 18l9.2 1.2 8.7 1.2q13.4 1.7 26.7 1.8 20 .5 39.7 2.4 1.3 0 2.6.3A97 97 0 0 1 617 499l3 1c-5-7.4-12.1-9.3-20.4-11.3-7.1-1.4-14.4-1.8-21.7-2.3l-7.1-.6q-2.3 0-4.4-.3c-3-.2-5.5-.6-8.4-1.5 1-3 1-3 3.2-4.2 11.8-4.8 23.6-8.7 36.3-9.1l3.6-.1 3.8-.2h3.8l9.3-.4-2.4-2-3-2.4-3.1-2.5c-3.5-3-3.5-3-3.8-5.4-.2-7.9-.2-7.9 2.3-11.8 6.5-4.1 13.5-4.3 21-4.2h2.8a101 101 0 0 1 26.4 3.9c20.5 5.5 38.7 15 55.8 27.4l1.8 1.3q10.2 7.5 19.5 16.1l2 1.9 1.8 1.7 1.6 1.5c1.3 1.5 1.3 1.5 2.3 4.5h2c14 15.5 23 35.4 30.8 54.5q1.9 3.8 4.2 7.5h1c1.4-14.5-5.8-27.5-13-39.6a51 51 0 0 1-4-8.4 66 66 0 0 1 40.3 30.6q3.3 7 5.5 14.3c1.4 3.5 3 5.5 5.6 8.1 12.5 15.2 13.9 37.2 12.6 56-3.4 28.4-17.6 49.9-37 70l-1.5 1.5c-17 17.6-17 17.6-25.5 21.5q3-6.7 7.3-12.7c5.2-8.2 8.4-17.3 11.7-26.3l.8-2q2.4-6.4 4.2-13l.6-2c5-18.3 3.8-37.3 3.4-56l-.4 3.1-.5 4-.2 2.1A35 35 0 0 1 788 624c-2.4-2.4-2.5-3.5-3-6.7l-.5-3-.6-3.2c-2.3-11.7-6-22.3-10.9-33.1l-1.5-3.3c-2-4.4-4-7.4-7.5-10.7l1.1 3.4 2.9 8.7.6 2a11 11 0 0 1-.6 5.9l-3-2.9-1.7-1.6C762 578 762 578 762 576h-2q4 6.5 8.5 12.8c13.4 19.2 13.4 41 10.5 63.2l-2-1q-.8-4.3-1.3-8.7A97 97 0 0 0 769 618l.5 1.9.6 2.5.7 2.4.2 2.2-2 2c0 4.4 1.7 8.1 3.1 12.2A68 68 0 0 1 768 692l-2 1v-1.6a67 67 0 0 0-13-44.4l-2-1 1.8 8.8.6 2.6q1.4 6.8 3.4 13.5a68 68 0 0 1-2.4 41.9L753 715c-1.1-3.4-.8-4.2.4-7.4q1.6-4.3 2.6-8.6h-4l-2-15c-1 2.8-1.2 4.9-1.4 7.8A117 117 0 0 1 736 739a307 307 0 0 0 29-19l2-1.5c19.6-14.5 19.6-14.5 28.2-22.5l1.7-1.5 3.1-3c3.7-3.5 3.7-3.5 7-3.5-1.4 4.5-4 7.5-7.2 10.8l-2.8 3-1.5 1.5-4.9 5.7q-5.2 5.9-11.4 10.7l-2.3 1.8-6.9 5.5-2 1.6c-13.6 10.5-28.4 19-43.3 27.4l-7.7 4.5a1035 1035 0 0 1-56 29.5c32.8-8 64.9-26.1 92-46l2 1c-27.1 28.4-27.1 28.4-40.8 35.8L707 785q-15.3 9-31.1 16.7l-3.7 1.8a109 109 0 0 1-36.1 10.1l-5.4.8-2.3.3q-3.6.5-7.3 1.3l24 4-1 2h-2.8c-24.7-.4-45.2 1.6-69 8.6q-21 6-42.1 11.5l-14.3 3.9c-31.5 8.4-31.5 8.4-41.8 5v-2l-10 1c4.1-2 7.8-2.8 12.3-3.5l2.4-.4 7.6-1.2 5.1-.9 12.6-2-2.4.2q-15.4 1-30.7 1.4h-2.7a2132 2132 0 0 1-46.4.6c-15.7.1-31.7-.3-47-4.5l-2.5-.6c-33.2-9-62.7-28.2-90.3-48.1l-2.8-2q-8.7-6.3-16.9-13l-2.2-1.8q-6.6-5.5-12.4-11.5-3.8-3.8-8.1-7.2C238 754 238 754 237 752c3.4 1.5 6 3.5 8.9 6a690 690 0 0 0 21.8 17.3c14.9 11.4 32.3 22.4 51.5 23 8.2.2 15.3 1.3 23.2 3.9 2.6.8 2.6.8 4.6.8l-2.1-2.3q-3.4-4.2-5.6-9.1c-3.6-6.7-8-10.9-15.3-13.3q-4.5-1.3-9-2.3c-5.5-1.4-7.9-3.2-11-8 0-3.5.5-4.5 3-7 5.8-1.3 10.4-.2 15.4 2.8q7.8 5.6 14.7 12.7a49 49 0 0 0 9.9 6.5l.3-4c1-8.3 4.9-16 10.7-22 2.6-1.6 3.6-2 6.7-1.7 2.3.7 2.3.7 3.3 1.7l.8 5.4a42 42 0 0 0 19.2 28.8q5 3 10 5.8l3.3 1.8c48 24.1 108.1 25.4 158.7 9.3 34-11.4 66-26.7 94-49.1l2.8-2.1c13-10 13-10 15.2-17 0-2.9 0-2.9-.7-6.5-.3-3.4-.3-3.4 1.3-5.8 3-2 4.8-2.5 8.4-2.6 2.9 1 2.9 1 5 3 1 3.8.6 5.7-1.1 9.2-4 6.1-9 11-14.2 16.1q-4.5 4.2-7.9 9c-2.7 4-6 6.2-10 8.8a180 180 0 0 0-10 7.3q-.7.8-1.7 1.4L637 783c32.9-15.1 59.6-32.2 74-67 4.3-12.2 5.2-24.2 5-37.1V668l-3 1c-6.3.6-6.3.6-9.4-1.9-2.4-3.2-2.8-5-2.9-9v-2.7c.3-2.4.3-2.4 1.5-4.1 2.1-1.5 3.6-2 6.2-2.4l2.3-.4c3 .6 4.3 2.1 6.1 4.5 2.3 3.8 3.6 7.9 4.9 12l.9 2.9c7 22.4 6 45.6-3.6 67.1l-4 6a56 56 0 0 0 20-37q.4-6.9.3-13.7v-3.6c0-11.8-2-22-7.5-32.4-.8-2.3-.8-2.3 0-4.6l1.2-1.7c4.6.4 7.6.9 11 4a68 68 0 0 0-21.8-37.7l-2-2-4-3.8a30 30 0 0 1-9.8-16.3c0-4.6.1-6.6 3-10.3 5.1-3.7 10.2-3.8 16.5-3.3 6.5 1.2 12.5 5.1 18.1 8.4a64 64 0 0 0-9.7-8.4c-4.2-3.2-5-5.4-6.3-10.6-10.5-16-33.2-24.3-51-28l-.4 3.8c-.7 5.8-2.7 9.6-7 13.5-2.9 2.3-4.8 3.8-8.6 3.7-7-1.3-11-4.2-15-10 1-1 1-1 4.4-1.4l3.6-.6c2-3 2-3 1.6-6.2-3.1-9.1-12.6-13.8-20.7-18-17.6-8.3-38.4-10.4-57.5-13.5l-2.7-.4-2.3-.4c-2.4-.5-2.4-.5-5.2-1.5a47 47 0 0 0-12.4-2l-4.3-.4-6.4-.6a207 207 0 0 0-22.2-.8c3.5.3 6.6.6 10 1.8 4.5 1.5 9.1 1.9 13.9 2.4 2.8.5 4.7 1.1 7.2 2.6l-5 1 8 1 1-2 3 2-1 2h-3l-1 3h-3l4 3q-6.6-.7-13-2a257 257 0 0 0-23.7-3.1l-3.4-.4-8.3-1.3c-19.6-3.2-39.4-2.5-59.1-2.4h-14.8l-28.7.2 1 2h-2.6l-9.7.4-4.1.1q-10.7.2-21.3 1.3a80 80 0 0 1-60.7-16.8c-12.7-10.6-25-26.4-28.6-43l1-2 2 3.4c17.2 27.4 42.9 40.6 73.8 47.8q16 3.6 32.2 5.8l-2.2-.4c-28.7-5.6-64.7-25.4-82.3-49.3L298 460l-1.2-1.7a64 64 0 0 1-7.4-16.2l-1-2.7c-4.6-14.8-5.9-29-5.4-44.4 2.4 3.5 3 7 3.8 11a76 76 0 0 0 7.2 20l1.8 3.4A124 124 0 0 0 330 470l5.1 4 3.9 3 2-2-1.7-1.8c-8.9-9.6-19-21.3-22.3-34.2 4 1.4 7.3 3.3 10.8 5.6 11.5 7.2 23 13 36.2 16.4l-5.5-5-1.7-1.6q-4.3-4-8.9-7.9a108 108 0 0 1-38.2-78A61 61 0 0 1 317 339"/><path fill="#f6f8ed" d="M644.3 100.4c12.5 11.6 12.5 11.6 12.8 19.3l-.1 2.3-2.8-.9-3.6-1.1-3.6-1.1c-3-.9-3-.9-5-.9l1.8.9c24.2 12.3 43 25 51.8 52 2.2 7 3.8 12.8 2.4 20.1-2.2.8-2.2.8-5 1a34 34 0 0 1-7.9-9.4c-15.8-24.1-49.6-32.3-75.5-40.2l-2.5-.7c-3.2-1-5.8-1.7-9.1-1.7l1 1.6c1.4 3.4.8 5.8 0 9.4-1.7 2.6-2.7 3-5.7 3.7l-2.3.3a40 40 0 0 1-4.7-7.3c-5-8.9-13.2-12.6-22.6-15.4a67 67 0 0 0-25.7-.3l1 1 4.1-.1c7.6 0 12.6 3.1 17.9 8.1 1.6 3.2 1.6 6.5 1 10-1.7 3-1.7 3-5 5a45 45 0 0 1-28-6l.2 2.8c-.2 3.2-.2 3.2-1.3 5-3.2 2-5.2 1.9-8.9 1.2q-2.8-3-5.2-6c-2.7-3-5-3.4-8.8-4l1.2 1.2a30 30 0 0 1 8.3 16.8c-.7 4.3-2.8 7.6-5.5 11-3 2-3 2-5.8 2.7-3.2-.7-3.2-.7-4.6-2.7l-3-5.4c-5.8-9.4-18.4-13-28.6-15.6l1 2c1 10.5 1 10.5-2.2 15.1-4 2.8-7.8 4.8-12.8 3.9-1.7-2.5-1.7-2.5-3-5h-2v5l-12 5 3 .7c8.7 2.6 15 6.6 20 14.3a23 23 0 0 1 0 18c-2.3 4.3-4.4 7-9 9-2.2-.4-2.2-.4-4-1l-.3-2.3c-1.2-8-1.2-8-3.5-11.3-5-3.2-9.4-3.7-15.2-4.4l4.4 9.3 1 2 .8 1.9q3.6 8.2.8 16.5c-2.3 5-2.3 5-4 7.3-2.2.8-2.2.8-4 1l-1.1-2.5c-3.5-7.3-6-12.6-14-15.6A72 72 0 0 0 357 228l2.2 1.7c10.2 8.4 10.2 8.4 11.1 14.4.2 4 0 6.4-2 10-2.3 1.9-2.3 1.9-5.2 2.4-3.4-.5-5.4-1.6-8.1-3.5l1 1 .7 2.1c1.2 2.7 2.3 4.2 4.3 6.3a20 20 0 0 1 5.3 13.1c-.4 4.6-1.4 7.8-5 11-3.4 2.7-4.7 3.5-9.3 3.5l-1.2-2.9c-3.4-7.4-6.3-13.2-13.8-17.1l-1.8-1c-6.5-3.1-14.1-2.3-21.2-2l2.9 1.8c4 2.8 6.5 5.5 8.1 10.2.4 4.8.5 7-1.7 11.4-2.3 2.6-2.3 2.6-4.2 3.8-3.4-.3-4.8-2.8-7.1-5.2-3.3-1.8-3.3-1.8-6-3l.9 1.7c2.6 5.4 3.7 9.3 3.1 15.3-1 2.5-1 2.5-2 4-2.6.4-4.4.4-6.6-1l-4.4-4c-5.2-2.6-13.4-2-19-.5q-9 3.4-17 8.5l2.3.2c7.4 1 12.5 2.4 17.7 7.8 2.3 3.4 3 5 2.8 9.1-.7 2.6-1.6 4.6-2.8 6.9l-2-.2a40 40 0 0 0-29 11.2l-5 5 1.9 1.6 2.5 2.1 2.4 2.2a13 13 0 0 1 4.6 10.1c-.1 3-.3 4-2.1 6.6-2.3 1.4-2.3 1.4-4.2 1.4-2.1-1-2.1-1-4.2-3-5.6-4-12-4.4-18.8-3.5a39 39 0 0 0-9.7 4l-2.1 1q-10.8 5.8-20.3 13.5l-2.7 2.1c-15.5 13-24.2 32-30.3 50.9h-2c1-24.4 13-46.9 30.5-63.4 4.5-4.1 9-7.4 14.4-10.4 4-2.3 6.6-4.8 8.1-9.2-8.8-1-15.8 2.2-23 7-12.7 10-20.4 24.5-27 39l-1.6 3.5c-12.7 29.7-15.6 62.7-15.5 94.6v8.8a583 583 0 0 0 .7 30.5q.3 7.3 1.4 14.6c-12.5-12.5-9-52.5-9-69 .5-46.6 14.7-97 47-131.6a51 51 0 0 1 20-11.4c-5.2-.2-9 0-14 2 2-5.2 4.8-9.5 8-14l2-3c3.5-4 8.3-6.5 12.7-9 9.6-5.8 9.6-5.8 11.8-9.6l1.2-2.1 2.6-4.7A88 88 0 0 1 244 284l1.6-1.8c1.4-1.2 1.4-1.2 3.4-1.2v-2l5.7-4.8 1.9-1.4q19.4-15 41.3-26.2c3.1-1.6 3.1-1.6 4.1-2.6a74 74 0 0 0-20 7l-3 1.4a207 207 0 0 0-57.5 40c-1.5 1.6-1.5 1.6-4.5 4q-4.4 3.9-8.1 8.4l-5.8 6.6a384 384 0 0 0-34 45.3q-3.3 5.2-7.1 10.3c-1-2-1-2-.4-3.7l1-2.1 1-2.4 1.3-2.5 1.2-2.6Q172 342 179 331l1.9-3a254 254 0 0 1 34.5-43.7A226 226 0 0 1 253 251l1.9-1.3c17.5-12.5 39.9-24.9 62.1-21.4q6.6 1.2 13 2.7c-1.4-3.4-1.9-4-5.4-5.8-9.5-3-19-1-28.4 1.2-3.2.6-3.2.6-6.2-.4a72 72 0 0 1 53-13l-4.3-2-2.4-1c-14.4-6.2-31.8-1-46 3.3L284 215c1.4-4.2 3.7-5 7.5-7.3q8.1-3.7 16.5-6.7 15-5.5 28.5-14c15.6-9.8 32.4-15.6 50.6-11.5l5.9 1.5v-3l-2.4-.8L378 169v-2a96 96 0 0 1 43.2.3c2.8.7 2.8.7 6.8.7-6.7-7.5-18.7-8-28.1-8.8-16.5-.9-34.2 3.4-49.4 9.6-3.5 1.2-3.5 1.2-6.5.2 24-15.4 64.7-38.3 94-33.5l2 .5c-2.2-3.3-2.4-3.4-6-4.2-31.4-6-67.4 18.6-93 34.2l-5.3 3.2-11 6.7-3 1.9c-2.7 1.2-2.7 1.2-5 .9l-1.7-.7c15-27.1 59.6-44 87.6-52.3a156 156 0 0 1 45.7-5.1h10.4c39 .1 39 .1 55.5 10.4 1.8 1 1.8 1 4.8 1-3-11.3-3-11.3-7-15-11.6-6.8-24.8-6.5-37.8-6.5h-2.7c-19.3 0-37.6 2.8-56.5 6.5l-11.5 2.2c-3.4.6-6.2 1-9.5-.2 37.5-12.4 75.7-24.2 115.3-27.1l3.5-.3 8.2-.6a95 95 0 0 0-21.2-2.7l-3.4-.1C416.5 86 344.8 122.1 285 172.3l-5.5 4.5a251 251 0 0 0-42.2 43.6q-14.8 18.4-28 38a342 342 0 0 1-10.9 15l-1.2 1.7c-3 3.8-3 3.8-5.2 4.9 7-23.8 25.5-46.2 41-65l2.2-2.8a256 256 0 0 1 40.2-41.1q3.7-3 7.2-6.4c7.2-6.6 15.4-12 23.4-17.7l2-1.4a401 401 0 0 1 84-44.6l3-1.2c69.1-26.4 186.7-53.7 249.3.6"/><path fill="#fa9b33" d="M512 504a285 285 0 0 1 32 1.3l2.1.1c8.9.9 17.4 2 26 4.6 5 1.4 10.3 2.1 15.6 3 47.9 7.6 47.9 7.6 63 26 1.8 2.8 2.4 4.8 2.3 8-1 1.8-1 1.8-3 3-3.7.7-3.7.7-7 1 3.3 4.8 6 7 11.7 8.6 3.8.6 6 0 9.3-1.6 6-4.7 7.5-10.8 9-18 18 0 36.3 11.9 49 24 3.9 5 3.9 5 4.3 8.5 1 3.6 3.4 4.8 6.4 6.9q5.5 4 10.3 8.6c-3.5 0-5.3-1.2-8.2-2.9-8.3-4.6-15.2-7-24.8-5.1-4.7 2.3-4.7 2.3-6 5-.3 2-.3 2-.4 4.6l-.1 2.4c1.5 8.7 7.6 14.5 13.8 20.3 11.4 11 22.6 24 23.7 40.7l-3.2-2c-3-1.8-5.2-2.4-8.8-2-1.6 4.9 1.4 8.6 3.5 13 6.9 16.5 6 40.6-.5 57l-1.3 3.2A53 53 0 0 1 717 741h-3l1-1.4a86 86 0 0 0 5.6-74.6l-.9-2.7c-3-9-3-9-6.7-12.3-2.3-.3-2.3-.3-4.6 0l-2.4.4c-2 .6-2 .6-4 2.6-.2 2.2-.2 2.2-.2 4.9v2.6q.1 3.3 1.2 6.5a23 23 0 0 0 14 0c.5 34.1-5.9 61.2-29.7 86.7-10.3 10.2-22 17-35.1 23l-3 1.5q-6.5 3-13.2 5.8c5.7-6 12.2-10.8 19-15.3 4.6-3.1 7.5-6.6 10.8-11q3.9-4.7 8.4-8.8c11-10.8 11-10.8 11.1-17.9l-.3-3a9 9 0 0 0-7-1.8c-3.2.8-4.2 1.1-6 3.8-1.2 3.5-2 6.3-2 10l-5 1c0 1.8 1.2 3.4 2 5-4.6 5.9-4.6 5.9-8 7l-3-3-2 6h-2l1 3-5 4-2-1 2-2 2-6h2v-3l-18 10 2 2-4 1v4h-2v-2c-3-1-3-1-6.5.6l-4.2 2.3-4.6 2.6-2.4 1.2-12.7 6.6A350 350 0 0 1 528 805c9 .5 17-1 25.6-3.1l4-1q11.2-2.6 22.2-6.2l2.2-.7c4.9-1.7 4.9-1.7 6-4h2l1 5-6 2.4-3.5 1.4c-3.5 1.2-3.5 1.2-6.7 1.6-5.3.8-10.2 2.7-15.3 4.5a212 212 0 0 1-69.4 9.4h-2.3a180 180 0 0 1-44.5-4.7c-15-3.6-15-3.6-19.3-9.6l3.5-.2 13-1 5.6-.3c17-1.1 34-2.5 50-8.2l3.2-1.1c27.3-9.7 55.4-24.1 75.7-45.2l4-4q-8 6.9-15.6 14c-4 3.4-7 5.5-12.4 5l2 2c-1 1-1 1-4 1.2-3-.2-3-.2-5-2.2l1.8-1.2c29-19.8 49.9-52.4 56.8-86.7 5.1-29.2-.7-58.8-17.8-83.2l-3.5-4.3C580 583 580 583 579 580h-2l-4-4 1.3 1.4q6.5 7.4 11.7 15.6c-2 2-2 2-4 2.2l-6-.2.4 2.6c2.4 14.8 2.4 14.8.6 22.4-3-1.5-3-3.5-4-6.6-6.1-16.2-16.7-30.3-28.8-42.5l-1.7-1.7a34 34 0 0 0-7.2-5.7c-2.8-1.8-3.6-3.7-5.3-6.5-2.3-1.5-2.3-1.5-4.8-2.8-3.7-2-5.8-3.7-8-7.2-3.2-4.5-6.9-6.2-11.8-8.4q-6.6-3.1-13-6.8-6.1-3.2-12.4-5.8c2.7-1.3 4.2-.6 7 .3q5.1 2 10 4.7v-2l-2.4-.9C492 527 492 527 490 525c13.7.3 27 5 40 9v-1c4.3-.3 7.2.7 11.1 2.5 5.6 2.5 5.6 2.5 8.9 2.5l-10-4v-1c7 .3 12 1.5 18 5l2-2v2h2v2l5 2-2.2-2.2-5.4-5.5C557 532 557 532 554 530l-1 2-5-3v-2q-11.1-5-23-8v-1c5.9-.2 11.2.4 17 1.5l2.4.4 5.6 1.1-3-2 2-.4 2-.6 1-2h3v-2c-1 0-1 0-2.7.6-3 .5-5.3.1-8.3-.6l-1-2 2-1q-.9 0-1.7-.3l-7.7-1.1-2.8-.5q-1.2 0-2.5-.4l-2.4-.3c-1.9-.4-1.9-.4-2.9-1.4l-6.6-1-3.6-.6-2.8-.4zm63 88 1 2Z"/><path fill="#f89733" d="M747 168c4.5 1.5 7.9 4 11.5 7l1.9 1.4 3.8 3.1 4.9 4q10.8 9 20.6 19l2.7 2.6c25.8 26 44.8 58.7 59.6 91.9h3v-4l3 1c1 5.9 1 5.9 1 7l1-3h4c-2.3-7.7-5.6-14.7-9-22l-2.9-6.3-1.2-2.7-.9-2h2l2.4 3.3 2.8 4.4 1.5 2.3c5 8 9.7 15.9 13.1 24.6q2.4 5.9 5 11.6a235 235 0 0 1 16.7 45.9l1.4 4.8.7 2.3a17 17 0 0 1 .4 10.8l2 1 1 7.1.4 4.7.3 2.5q.7 5.7 1.5 11.2a297 297 0 0 1 2.9 34.6c1.2 45.3-5.1 92.8-24.6 134l-1.3 3c-3.2 6.4-7 12-11.2 17.9l-2.7 4c-5.8 8.8-12 16.4-19.3 24l-5.6 6.4-4.4 4.6-2-1 .6-2.4 1.6-6.3c1.8-7.5 2-14.7 2-22.3v-3.4q0-13.6-2.7-27c-.8-6.8 3.4-11.5 7.4-16.6l3.1-4 7.1-9 1.9-2.4c32.5-41.9 41.6-99 39.9-151v-2c-.4-5.6-2.4-7.7-5.9-11.6v-3h-2v4h2l-.9 6c-.1 2-.1 2 .9 4l5 1-1 3h-6v10h4l-2-8 3-1 2 1v6.8l.1 3.8c-.1 3.4-.1 3.4-1.1 6.4h-2v2l-2-1v-2h3c-.7-3-.7-3-2-6-2-.7-2-.7-4-1v-1.7c-.7-23.3-4-45.6-9-68.3l.4 2c10.3 56.6 17 132.3-17.4 183-19.8 27.8-19.8 27.8-32.4 30.8l-2.6.2c1.4-4 3.3-6.8 6-10l-4 2v-2h-2v3l2 1c-3 0-3 0-4.7-1.5L820 534l1-2h3l1-2h4c.6-2.8.6-2.8 1-6l-2-3-3 7h-3v-2h-6v2h-2v4h-2v-2h-3l1 4h4l1 2 1-2h2v2l2 1-2.4.7c-2.6 1.3-2.6 1.3-4 3.6-.7 3-.6 4.8.4 7.7l2 1-1 3-3-1-1 5c-2.5-3.8-2-6.4-1.6-10.7l.1-2.1.5-5.2-2-1-1 4c-.1-4.7-.1-4.7 1-7-1.7-1.8-3-3-5.2-4.2a37 37 0 0 1-8.1-7.9L790 518l-1 3 2 .3 2 .7 1 3 2 1h-2v2h2v2h2l4 5 2 2-2 2-2.2-2.5-3-3.2-1.4-1.6q-3.5-4-7.8-7.4L785 522c.1-3.3.1-3.3 1-6h-2v5l-3-2 1-5h2v-2h-2l-2-4v2c-3 1-3 1-6 0v2l-3-1 2-4h6l1-2-8 1v-2h3l-1-3c6.6-3 6.6-3 10-3l.1-1.7c1.1-2.8 2.5-3.5 5-5 25-16.9 37.6-47.5 43.4-75.9q1.7-8.6 2.5-17.4l.3-3.5c2.8-33-2-66.1-12.3-97.5l-1-2.8a327 327 0 0 0-51.9-97.1 349 349 0 0 0-18.7-23.3C749 171 749 171 747 168m106 131 1 2Zm13 3 1 2Z"/><path fill="#6eaed4" d="m499.6 87.3 3.2.1q10.7.6 21.2 2.6a12 12 0 0 1-7.7 2.5l-3 .1-3.2.2c-34.7 2.4-68.1 11.6-101 22.2l-13.1 4 3-.5 11.3-1.9 4.8-.8L437 112c11.2-1.8 22-2.6 33.4-2.5h8c26 0 26 0 35.7 8.4 4 4.6 5 9.2 6 15-4.5-.5-7.6-1.7-11.6-3.9-16.1-8.3-34.8-7.4-52.6-7.4l-7-.1c-20.8-.4-40.8 1.8-60.3 9.7l-3 1.2q-12.6 5-24.5 11.5l-2 1a207 207 0 0 0-35.3 23.9l-1.6 1.3a18 18 0 0 0-6.1 7.8c3.8-.6 6.4-1.6 9.6-3.6l2.6-1.7 8.4-5 10.4-6a335 335 0 0 1 33.6-18q11.5-5.8 23.6-10.2l2-.7a48 48 0 0 1 31.8-.8c2 2.6 2 2.6 3 5l-2.4-.5c-30-4.2-68.4 17.9-93.6 32.5l1.8-.5c26-7.9 51.6-15.5 77.8-4.8 2.4 1.3 2.4 1.3 4.4 4.3l-2 2-2.2-.6-3-.8-2.8-.8a70 70 0 0 0-18-2h-2.6q-10.2.2-20.4 1.2v2l1.8.3c4.8 1 9 2 13.2 4.7l3 5-3.1-.9c-21-5.7-37.2-1-56 9.8l-3.6 2a183 183 0 0 1-31.5 14.5A69 69 0 0 0 285 213c3 0 4.8-.5 7.6-1.3 15.6-4.6 31.8-8.3 47.5-1.9 1.9 1.2 1.9 1.2 3.9 4.2l-2.3-.3c-18.5-2-35 2.3-50.7 12.3l3.3-.7c22.6-4.3 22.6-4.3 33 .4 2.1 1.6 2.3 2.8 2.7 5.3l-4.1-.4-7.8-1.1c-26-4.1-49.7 11.4-69.8 25.8q-6.9 5-13.3 10.7l-1.5 1.3a289 289 0 0 0-49 56.8c-19 28-19 28-21.5 39.9 9.6-13.2 9.6-13.2 13.4-19.5 4.4-7 9.5-13.2 14.6-19.5l1.8-2.2 5.4-6.7 1.8-2.1q4.9-6 10.4-11.4 2.3-2.4 4.5-5.1 4.2-4.7 9-8.7l4.1-3.7a236 236 0 0 1 51-33.6l3-1.5c14.4-7.5 14.4-7.5 19.3-6.6l1.7.6a49 49 0 0 1-12.1 7.4 168 168 0 0 0-36.9 25c-2 1.6-2 1.6-5 2.6v2l-3.5 3a66 66 0 0 0-16.1 20.8c-4.5 8.5-10.3 11.9-18.5 16.5A46 46 0 0 0 193 343l2-1c3.9-1.3 7-1.1 11-1l1 2-2.1.7A45 45 0 0 0 188 353l-1.9 1.6c-31 28.5-43.7 79.9-45.7 120.3a335 335 0 0 0 2 52.2l.3 3q1.4 10.7 4.3 20.9l-.5-2q-1-6-1-12l-.2-2.6q-.5-15.2-.6-30.3v-3a327 327 0 0 1 3.7-52c5-31.8 16.7-67 42.7-87.6 6.7-4.6 12-7.3 20.2-5.9l1.7.4c-.9 4.2-2.7 6.4-6 9l-4.4 2.5c-20 11.6-32.5 32.2-39 53.9A176 176 0 0 0 160 439h2l.5-2c7-27.5 23.5-48.2 47.5-63a55 55 0 0 1 23-8 35 35 0 0 1-8 6.3 118 118 0 0 0-34.3 33.5c-33.2 45.8-40.3 111.6-32.2 166.3 2.4 15 6.6 29.3 11.7 43.6l1.8 6.3c-12-10.8-17.9-32-23-47l-.8-2.3c-27.5-79.2-16-164.8 15.4-240.8l1.3-3.2c4.4-10.3 11-18.8 18.4-27.1l1.7-2 13.6-15 6-6.8q4.6-5.1 9.4-9.8 5.6-5.9 10.7-12t11-11.1l7.5-6.7a221 221 0 0 1 33.2-24.3l4.6-2.9 2.5-1.6 2.5-1.6 2.3-1.4c1.7-1.4 1.7-1.4 2.7-4.4l-3-1-.6 1.8a16 16 0 0 1-10 7 61 61 0 0 0-11.7 6l-2.3 1.5q-20.2 12.6-37.9 28.3l-4.4 4c-6.6 5.7-6.6 5.7-9.2 9.2L210 261h-2v2l-2-1c21.3-31.2 44.3-63.3 74.3-86.9l7.2-6A386 386 0 0 1 331 137l2.2-1.4 6.2-4 1.9-1.1a282 282 0 0 1 158.3-43.2"/><path fill="#da561c" d="M512 504a285 285 0 0 1 32 1.3l2.1.1c8.9.9 17.4 2 26 4.6 5 1.4 10.3 2.1 15.6 3 47.9 7.6 47.9 7.6 63 26 1.8 2.8 2.4 4.8 2.3 8-1 1.8-1 1.8-3 3-3.7.7-3.7.7-7 1 3.3 4.8 6 7 11.7 8.6 3.8.6 6 0 9.3-1.6 6-4.7 7.5-10.8 9-18 18 0 36.3 11.9 49 24 3.9 5 3.9 5 4.3 8.5 1 3.6 3.4 4.8 6.4 6.9q5.5 4 10.3 8.6c-3.5 0-5.3-1.2-8.2-2.9-8.3-4.6-15.2-7-24.8-5.1-4.7 2.3-4.7 2.3-6 5-.3 2-.3 2-.4 4.6l-.1 2.4c1.5 8.7 7.6 14.5 13.8 20.3 11.4 11 22.6 24 23.7 40.7l-3.2-2c-3-1.8-5.2-2.4-8.8-2-1.6 4.9 1.4 8.6 3.5 13 6.9 16.5 6 40.6-.5 57l-1.3 3.2A53 53 0 0 1 717 741h-3l1-1.4a86 86 0 0 0 5.6-74.6l-.9-2.7c-3-9-3-9-6.7-12.3-2.3-.3-2.3-.3-4.6 0l-2.4.4c-2 .6-2 .6-4 2.6-.2 2.2-.2 2.2-.2 4.9v2.6q.1 3.3 1.2 6.5a23 23 0 0 0 14 0c.5 34.1-5.9 61.2-29.7 86.7-10.3 10.2-22 17-35.1 23l-3 1.5q-6.5 3-13.2 5.8c5.7-6 12.2-10.8 19-15.3 4.6-3.1 7.5-6.6 10.8-11q3.9-4.7 8.4-8.8c11-10.8 11-10.8 11.1-17.9l-.3-3-9-3v-1h8q3.8-10.8 6-22l.9-3.7q2.9-13 4.1-26.3l-1.8 1c-2.2 1-2.2 1-5.2 1l1-3 5-1v-13l-2-1v2h-2c-2.1 4.5-2.7 9-3.3 14-3 19.8-12 36.2-26.7 50l-1.7 1.8C657 725 657 725 655 725c0-2 0-2 2.3-4.3l2.7-2.7c3-3.5 4.9-6.6 6.4-11q1.8-5.1 4-10.1c4.8-11.8 6.7-24 7.4-36.7.2-2.2.2-2.2 1.2-4.2-2 2-2 2-2.2 4.2v2.4l.1 2.5.1 1.9-3-1-3 1 .3-2.1c2-21 .2-40.9-6.3-60.9l-1-3.4c-3.6-10-10.5-19.4-17-27.6h-1v7l-4-1v-3c-1.7 3.4.3 6.8 1.3 10.3 8.5 29.5 5.8 61.5-8 89a78 78 0 0 1-5.3 7.7l-2.8 3.7c-7.5 9.8-7.5 9.8-11.2 12.3l2-5c-3.9 4.8-3.9 4.8-5 7l-2-1 1-2h-3l-3 6h-3c1.5-4.2 3.6-7.6 6-11.3 19-29.1 30.5-62.2 23.9-97.4-3.6-13.8-12.3-22.9-22.2-32.6l-5-5.6a107 107 0 0 0-50.3-32.1l-2.4-1-1-3-5-1 1-2h3l1-2h3v-2c-1 0-1 0-2.7.6-3 .5-5.3.1-8.3-.6l-1-2 2-1q-.9 0-1.7-.3l-7.7-1.1-2.8-.5q-1.2 0-2.5-.4l-2.4-.3c-1.9-.4-1.9-.4-2.9-1.4l-6.6-1-3.6-.6-2.8-.4z"/><path fill="#8bbbd3" d="M231 376c0 5-3.2 9.4-5.5 13.8a95 95 0 0 0-5.3 70.8A108 108 0 0 0 240 494l4-3-4-1-1 2c-1-3.7-1.2-6.4 0-10l3-3 11 8-3 3h2v2h-2v4h-2v2l4 1-1-5c3.9-4 3.9-4 7-4q3 .4 6 1h3v-2l-5-1v-2l5-1 1 3h2l2.7 4c3.5 5.2 7.5 10.6 13.3 13l-2.7-2a58 58 0 0 1-10.2-11.4c-9.3-12.3-18.4-28.5-18.2-44.4v-2.4l.1-1.8h1l1 5c1.1-5.5 1.1-5.5.5-7.9-.6-2.6-.4-4.7 0-7.4l.3-2.6.2-2.1c2 3 2.4 4.2 2.9 7.5l.4 2.8.4 2.9A108 108 0 0 0 288 497l2 2.3a106 106 0 0 0 39.9 25.8c2.1.9 2.1.9 3.1 2.9a67 67 0 0 1-32-6l-2.6-1c-8-3.1-15.2-8.4-22.4-13l4-1-6-1 1-6h-3l-1 6 1.6.7q4.9 2.8 9.4 6.3l-1 4h2v-2q3.6 1.3 7 3l7 3q5.6 2.3 11 5l-1 2 2.2-.6c3-.4 5-.1 7.8.6l-1 3a89 89 0 0 1-28.5-5.7l4.7 1.6 2.3.9a55 55 0 0 0 20 3.3h2.3q5.6.2 11.2-1.1l1 2-1.6.4c-23.5 6.1-45.2 22-62.4 38.6l-2.1 2a108 108 0 0 0-33 73.9 149 149 0 0 0 7.2 55.3A127 127 0 0 0 255 734c-19.2-8.5-39-33.2-51-50l-2.5-3.4q-7-9.5-13.2-19.4l-1.3-2-3-5.2 1-2c6 4.8 10.3 9.8 14.4 16.3 4.3 6.4 8.4 12.2 13.8 17.7q2.8 3.2 4.8 7-1.9-5.9-4.5-11.5l-1.5-3-1.5-3.1-1.5-3.2c-3.8-7.9-3.8-7.9-5.2-10.3-.8-1.9-.8-1.9-.8-4.9a63 63 0 0 0-3-8.7l-.9-2.4-2.1-5.9h-2q-4.3-11.6-6.7-23.7l-.6-3q-2.9-12.8-2.9-25.7v-8.2l-.1-8.4V563c0-8.9 2.2-15.6 8.3-22.1a25 25 0 0 1 7 4.7c7.3 6.3 14.2 11.4 24 11.3h6l1-2h3l-5-2-1 2c-1.1-2.3-1.1-2.3-2-5l2-3v3l2-2-3-4 3-1-5-3 2-1 4.9 2.8c5.2 3 9.8 4.1 15.8 4.8l2.3.4 1 2-4 3 7-4-2-.7c-16-6.2-30.1-14.9-42-27.3l-2.6-2.6A79 79 0 0 1 188 483l1-4 .8 1.8c4.4 9.4 10.7 17.1 17.2 25.2l-1.5-2.5A114 114 0 0 1 189 464l1-3 1.3 3.2A163 163 0 0 0 219 511l1.8 2.3A66 66 0 0 0 261 537l1-4-2-1-1 4c-9.9-1.4-18.8-10.5-25.4-17.6a15 15 0 0 1-2.6-7.4l2 1.2a511 511 0 0 0 23.1 12.8l2 1 5.3 2.4c2.6 1.6 2.6 1.6 3.5 3.7l.1 3.9h-3v2h4v-4h2v-3l9 1-2-.5a82 82 0 0 1-38.4-25.2l-5.7-6.5a105 105 0 0 1-29.4-72.6c.6-16.5 5-31 16.3-43.2a63 63 0 0 1 11.2-8"/><path fill="#75b1d4" d="M317 339c1.3 2.6.9 4 .5 7a99 99 0 0 0 19 69.3q4.4 4.7 9.5 8.7l-1.3-2.5q-5.1-9.9-9.1-20.2l-.8-2.1c-1.8-5-1.8-5-1.8-7.2 12 4.3 16.8 14.3 22 25l4.1 8.4 1 2c3 6 6.5 11.2 11.3 16l1.6 1.6v2a73 73 0 0 1-24-17c14 25.9 47.9 46.8 75.2 55.6 11.9 3 23.6 3.9 35.8 4.4l9 .5 22.6 1 19 1 8.8.4c19.5 1 38.6 3.4 57.6 8.1-3.3 1.3-6.1.8-9.6.3-18.3-2.1-37.2 0-55.4 2.7l2.6.4 7 1c3.4.6 3.4.6 6.4 1.6 4.5 1.5 9 1.9 13.8 2.4 2.8.5 4.7 1.1 7.2 2.6l-5 1 8 1 1-2 3 2-1 2h-3l-1 3h-3l4 3q-6.6-.7-13-2a257 257 0 0 0-23.7-3.1l-3.4-.4-8.3-1.3c-19.6-3.2-39.4-2.5-59.1-2.4h-14.8l-28.7.2 1 2h-2.6l-9.7.4-4.1.1q-10.7.2-21.3 1.3a80 80 0 0 1-60.7-16.8c-12.7-10.6-25-26.4-28.6-43l1-2 2 3.4c17.2 27.4 42.9 40.6 73.8 47.8q16 3.6 32.2 5.8l-2.2-.4c-28.7-5.6-64.7-25.4-82.3-49.3L298 460l-1.2-1.7a64 64 0 0 1-7.4-16.2l-1-2.7c-4.6-14.8-5.9-29-5.4-44.4 2.4 3.5 3 7 3.8 11a76 76 0 0 0 7.2 20l1.8 3.4A124 124 0 0 0 330 470l5.1 4 3.9 3 2-2-1.7-1.8c-8.9-9.6-19-21.3-22.3-34.2 4 1.4 7.3 3.3 10.8 5.6 11.5 7.2 23 13 36.2 16.4l-5.5-5-1.7-1.6q-4.3-4-8.9-7.9a108 108 0 0 1-38.2-78A61 61 0 0 1 317 339"/><path fill="#d55520" d="m573 576 4 2v2h2c19.6 21.1 27 49.5 26.1 77.6a119 119 0 0 1-27 70l-5.2 6.6q-5.5 6.9-11.9 13l-2 2.1q-6 5.9-13 10.7v1h6l-2-2 1.7-.4c9.8-2.6 16.6-9.6 23.4-16.9 1.9-1.7 1.9-1.7 3.9-1.7-1.4 3.2-3 5-5.6 7.3-4.3 3.6-4.3 3.6-6.1 5.4C529 788.7 475 798 425 801c3 3.2 6 4.3 10.1 5.5l2.1.6c17.3 5.1 34.7 6.1 52.6 6h2.4c25.9 0 49.7-2.4 74-11.4 4.7-1.7 9-3 13.8-3.7l4.9-1.6 2.3-.8 1.8-.6v-3l-1.8.7c-18.8 7-40.9 15-61.2 13.3 2.5-2.5 4.2-2.7 7.6-3.6l3.6-1 3.8-.9a319 319 0 0 0 53.1-19.5c7.8-3.5 15.5-7.1 22.8-11.7q4.9-3 10.1-5.3l2 1 1 3h2v-4l2-1v-3l7.9-4.5 2.2-1.3 2.2-1.2 2-1.2c1.7-.8 1.7-.8 3.7-.8v3h-2l-2 7 4-3v-2h2l.4-1.9c.6-2.1.6-2.1 1.6-4.1l4 2 6-5-1-4h-3c4.6-4 4.6-4 8-4l-1-2 1-2h2c.9 2.5.9 2.5 1 6-16.6 33.8-78 55.9-110.1 67q-34.1 11.6-70.1 11.4h-2.3a188 188 0 0 1-48.8-5.8c-21-5.4-43.2-11.7-59.7-26.6l-2.1-1.9A41 41 0 0 1 367 757c-4.7-1.1-4.7-1.1-7.5 0-8 6.4-10.7 16.2-12.5 26-4.5-1.2-7-2.6-10-6-5.2-5.4-14.6-14.6-22.3-15.2h-5.4c-2.3.2-2.3.2-4.3 2.2.2 2.9.4 5.1 2 7.5 3 2.3 6.5 2.8 10 3.7 10.6 2.9 18.2 7.1 23.9 16.9l1.6 3q2.8 5.3 6.5 9.9l-2-.6-2.5-.8-2.5-.7c-6.8-2-12.9-3.2-20-3.4-9.9-.3-18.1-2.1-27.1-6.5l-2.5-1.2q-11.8-6-22.4-13.8l-1.7-1.2q-10.7-8-20.6-16.9a36 36 0 0 0-8.7-5.9 415 415 0 0 0 105 73.5l3.1 1.5q10.1 4.8 20.9 8l-1 2-11-3v2l3 1v3l1.7-.6c2.8-.5 4.6-.3 7.3.6 1.3 2 1.3 2 2 4h-2l1 2h3l-1 5 5 1v2h2l1-2h6l-1 2-3 1 8 3c-4.6 1.1-5.7.7-10-1l-3.4-1.4-3.8-1.5-3.8-1.6c-39.6-16-78-39.2-109.4-68.2L251 780q-9.2-7.6-17.6-16.4l-5-5A281 281 0 0 1 212 741l-1.5-1.8c-8.7-10-16-20.7-23.1-32l-3.8-5.8-2-3-2.6-4.4 1-2 1.7 2.3Q192 708 204 720l1.5 1.6q8.5 8.8 18 16.4l6.5 5.6c4 3.6 8.5 6.4 13.1 9.3l6.6 4C290 782.4 290 782.4 310 787a16 16 0 0 0-5.4-6.7c-4.6-4-7-9.5-8.3-15.5 1-4.2 3.5-7 6.7-9.8 9.1-3 16.6.4 25 4l-.5-3.7c-1.8-16.9-1.8-16.9 1.5-24.3 2.9-3 6-5.9 10.2-6.2h5.3c2.7.2 4.2.8 6.5 2.2 2.3 2.8 3 4.4 3 8-1.3 4-2.6 5.5-6 8a79 79 0 0 1-10 3c.3 8.8.6 16.8 4 25l1.2-3c3.9-9 9-16.5 18.4-20.3a18 18 0 0 1 14.8 2.2c2.6 2.1 2.6 2.1 4.6 4.1-.4 3.6-.4 3.6-1 7h-3c2.5 8.2 8 11.7 15.2 15.8 33.4 17 74.1 13.7 108.8 2.9q11.9-4 23-9.7l3-1.4a145 145 0 0 0 72-87.6l1-3.2a106 106 0 0 0-13-81.8l-1.7-2.8a58 58 0 0 0-11-13.9C573 578 573 578 573 576"/><path fill="#faa03a" d="m665 656 2 3 3-1 1-2 1 10 3-1v2h2l-1-10 3-1-2.3 23c-1.3 9.8-5.9 19-9.7 28l-1 2.5a36 36 0 0 1-6.1 10.6l-1.5 1.7C657 723 657 723 655 723v2c1.9-.2 1.9-.2 4-1l2-5 2.3-1.8c18-14.5 22.3-38.7 24.7-60.2l4 1v-2l3 1v14l-6 1c3 1 3 1 6 0 0 10.3-1.6 20-3.8 30l-.8 3.4c-3 13.5-3 13.5-6.4 18.6-3 .8-3 .8-6 1-4.5 2.6-5.9 5.4-7.5 10.1-.5 1.9-.5 1.9-.5 4.9l-5 1c0 1.8 1.2 3.4 2 5-4.6 5.9-4.6 5.9-8 7l-3-3-2 6h-2l1 3-5 4-2-1 2-2 2-6h2v-3l-18 10 2 2-4 1v4h-2v-2c-3-1-3-1-6.5.6l-4.2 2.3-4.6 2.6-2.4 1.2-12.7 6.6A350 350 0 0 1 528 805c9 .5 17-1 25.6-3.1l4-1q11.2-2.6 22.2-6.2l2.2-.7c4.9-1.7 4.9-1.7 6-4h2l1 5-6 2.4-3.5 1.4c-3.5 1.2-3.5 1.2-6.7 1.6-5.3.8-10.2 2.7-15.3 4.5a212 212 0 0 1-69.4 9.4h-2.3a180 180 0 0 1-44.5-4.7c-15-3.6-15-3.6-19.3-9.6l3.5-.2 13-1 5.6-.3a183 183 0 0 0 53.2-9.3A268 268 0 0 0 558 759l1.9-1.2c3.4-2 5-2.8 9.1-2.8q4.3-1.4 8.3-3.4l2.4-1q11.8-5.7 22.3-13.6l3.1-2.2A165 165 0 0 0 665 656"/><path fill="#fca138" d="M850 265h2l2.4 3.3 4.3 6.7c5 8 9.7 15.9 13.1 24.6q2.4 5.9 5 11.6a235 235 0 0 1 16.7 45.9l1.4 4.8.7 2.3a17 17 0 0 1 .4 10.8l2 1a90 90 0 0 1 1.4 11.8l.3 2.5q.7 5.7 1.5 11.2 2.2 16.2 2.8 32.5v2c1.3 45.4-5 93-24.5 134.2l-1.3 2.8c-3.2 6.5-7 12.2-11.2 18l-2.7 4c-5.8 8.8-12 16.4-19.3 24l-5.6 6.4-4.4 4.6-2-1 .6-2.4.8-3.2.9-3c1.7-7.6 1.9-14.8 1.9-22.4v-3.4q0-13.6-2.7-27c-.8-6.8 3.4-11.5 7.4-16.6l3.1-4 7.1-9 1.9-2.4c32.5-41.9 41.6-99 39.9-151v-2c-.4-5.6-2.4-7.7-5.9-11.6v-3h-2v4h2l-.9 6c-.1 2-.1 2 .9 4l5 1-1 3h-6v10h4l-2-8 3-1 2 1v6.8l.1 3.8c-.1 3.4-.1 3.4-1.1 6.4h-2v2l-2-1v-2h3c-.7-3-.7-3-2-6-2-.7-2-.7-4-1v-1.7c-.7-23.3-4-45.6-9-68.3l.4 2c10.3 56.6 17 132.3-17.4 183-19.8 27.8-19.8 27.8-32.4 30.8l-2.6.2a26 26 0 0 1 5.7-9.4c10-12.4 13.6-26.5 17.3-41.6l3.9-16.3 2.9-11.5q1.2-4.9 1.8-9.9l.4-3.3 2-1c-1.1 21-2.3 41.5-11 61 28.7-54.8 29.8-125.6 13-184.3-1-3.7-1-3.7-1-7.7h5l-4 1 2 2h4l2 4h2c2.5-5 1-11-.6-16l-.6-2-.7-2.1q-2-6.1-5-11.7-2.2-4.6-4-9.4-4-10.2-9.1-19.8"/><path fill="#fba037" d="M883 585c1 2 1 2 .5 3.9l-2.7 7.8-1.1 3A304 304 0 0 1 829 685l-1.4 1.6c-12.4 15.1-25.6 30-40.5 42.6l-6.2 5.6q-8 7.4-16.6 14-7.1 5.6-14 11.6c-7.8 6.6-7.8 6.6-10.3 6.6l-.6 1.8c-2.1 3.3-4.7 3.9-8.4 5.2a83 83 0 0 0 17.8-7.6l2.3-1.4q10.4-6 19.9-13l2-1.4q12.5-8.8 23.6-19.5c2.4-2.1 2.4-2.1 5.4-3.1l1 4 7-6a25 25 0 0 1-5.7 7.9l-2.2 2.1-2.2 2.3-2.3 2.2-5.6 5.5-3-1-2 2v3a83 83 0 0 1-7 6.6l-7 6.1c-34 30.2-76.1 55-121 64.2-3.3.6-5.2 1.2-8 3.1a74 74 0 0 1-8.5 1.5l-3.7.6L620 834h32l-2 1 1 4 3-1v-4l4-2 2 4v-2l9-3 1 2-4 2v1h-5v2l3 1c-22.3 6.7-45.3 6.5-68.4 5.3a189 189 0 0 0-48.5 4.5 587 587 0 0 1-48 7.6l-3 .4c-36.3 4.3-74.8 7-109.1-7.8l-2-2 2 .3 9.4 1.1 3.2.5c16.7 2 32.4 2.5 49.1.8q12.7-1.1 25.3-.7v2l3-1v2l3-1 6-.6a192 192 0 0 0 32.4-6l5.3-1.4q20-5.1 39.9-11l18.8-5.4 3.5-1c14-4 27.5-4.9 42-4.7h4.7l11.4.1-24-4c1-2 1-2 2.7-2.6q10.5-2 21-3.2a98 98 0 0 0 32-10.6l1.9-.9A266 266 0 0 0 754 745l-2 1.3C725.7 763 698.5 780 668.4 789l-2.2.7c-3.3.9-4.9 1.3-8.2.2l2.3-1q23.6-11.1 46.3-23.6l6.8-3.8a368 368 0 0 0 61.9-40.2q7.6-6 14.4-13.2c1.3-1.2 1.3-1.2 3.3-1.2l.7-1.7c2.3-4 5.8-7.2 9-10.6 2-2.3 3.2-4 4.3-6.7l-2-1 3-2.3q4.4-4 8-8.6 5.7-7.1 12.4-13.4c6.9-6.8 12.8-14 18.6-21.7l2-2.5 1.7-2.2 1.4-1.7c.9-1.6.9-1.6.9-4.6l-.7 2a41 41 0 0 1-6.7 9.8l-1.5 1.8-4.1 4.4h-3c-2.7 2.5-2.7 2.5-5 5 3.5-8 10.5-14.5 16.4-20.7 10-10.7 17.8-23 25.8-35.2q4-6.3 8.8-12.1"/><path fill="#6dadd4" d="M457 234c2 3.7 2 3.7 1.4 6.2-1.4 1.8-1.4 1.8-3.8 2.1-2.6.7-2.6.7-3.8 2.3L448 250h3l1-6 1 2 6-2q-3.6 6.6-8 12.8c-25.1 35.8-40 78.2-33 122.5 5 26.6 18 52.7 40.2 69 16.6 11.4 34.5 16.7 53.8 21.7l2.4.6c13.8 3.4 28.4 3.6 42.6 4.4l-1 2c-27.2 8.6-64.6 2.7-92-3l-2.1-.4a118 118 0 0 1-54.4-26.9C394.3 435.4 383 422.2 379 405l-.8-3c-8.8-33-.9-66.4 16-95.4q1.4-2.8 3.2-5.5l1.6-2.7 1.5-2.5 1.3-2.2c1.2-1.7 1.2-1.7 3.2-2.7l-1.3 3.8a128 128 0 0 0-6.4 40.7l-.3 8.5h2l.6-3c3.7-16.9 9.2-32.8 17.4-48l3-6.1a182 182 0 0 1 19.5-29.9l5.3-7.5q5.8-8 12.2-15.5"/><path fill="#1f5592" d="M521 63v1h39v4l3-1 1-2h4.8l2.6-.1c2.4 0 4.3.4 6.6 1.1l-1 3-1-2h-2v3h-4v-2h2v-2h-4v5h6v1h-8v-3l-2-1v3h-23l4-3 1-1c-2.9-.6-2.9-.6-6-1l-2 2c-1.9-.3-1.9-.3-4-1l-2.2-.6-1.8-.4v2h-2v-2l-7 1-1 3h2v-2h4v2h5l1-2v2h8v1h-27l-4 1-1-4-2 2v2a27 27 0 0 1-15-1l-3-3v4q-3.1-.6-6-2v2h-4v-2l-2 1-1 3c-2 0-2 0-3.6-1.5L470 71c.3 1.9.3 1.9 1 4l3 2-1.8.2c-3.6.3-6.7.6-10 2-2.6 1-3.7.7-6.2-.2l4-1v-2l-5-1v6l-13 3.4-4.3 1.1-6.3 1.7-3.9 1q-4.7 1-9.5 1.8l2-1-3-4-2 2-2-2-1 5-4-1v3l3 1-6.3 2.6L401 97c-3.1 1-3.1 1-6.1 0l3-2-2-2-2 3h-2v2c-2.3.6-2.3.6-5 1l-3-2c-3 0-3 0-6 1v2l3 1 1 1 3 1-8.8 4-2.5 1.2-2.5 1-2.2 1c-2 .8-2 .8-5 .8v-3l-2 2 1 3-3 1.5a285 285 0 0 0-22.7 12.2L333 129l-2-1 1-2c-2.9.2-2.9.2-6 1-1.4 2.6-1.4 2.6-2 5h2l1-3 3 2a80 80 0 0 1-11.9 9.1A287 287 0 0 0 285 164l-1.6 1.3a299 299 0 0 0-48.3 48.2 350 350 0 0 0-32.3 46.3l-1.6 2.7q-4.6 8-8.2 16.5l4.9-6.3 1.4-1.8q3-3.9 5.7-7.9h3v-2a93 93 0 0 1 6.7-6.8q6.9-7 14.5-13 2.7-2 5.2-4.3c8.5-7.2 17.9-13.2 27.2-19.3l6-4 2.9-2q1.2-.7 2.3-1.5c2.4-1.2 4.6-1.6 7.2-2.1 2-1.1 2-1.1 3.8-2.4q.8-.7 1.8-1.3c1.4-1.3 1.4-1.3 2.4-3.3l4 1a18 18 0 0 1-8.6 8.6l-3.5 2-1.9 1.2q-17.6 10.5-33 24.2l-4.4 3.8-5.4 4.7a67 67 0 0 0-8.5 8.2q-5.2 6-10.8 11.9l-4 4.2-7.7 8.2a366 366 0 0 0-25.1 29.2l-1.5 1.7-3.6 4.1h-2q-13 25.1-22 52h-4v5l-2 1h3a57 57 0 0 1-4 17l-3 1h2q-.8 11.2-4 22l-2 1 1 4-3 1-1 2 3-1-1 12a36 36 0 0 1-8-1 311 311 0 0 1 8-46l.6-2.4q3-13 6.9-26l.9-3a397 397 0 0 1 73.3-139.5C228 198.3 228 198.3 232 197v-3a124 124 0 0 1 8-8q1.5-1.8 3.4-3.4l8.3-8.4 4.3-4.2h2v-2l3.4-3.1 2.2-1.9q6-5 12.4-10l4 2-2 3v2l-3 1 1 2h-2l2 3 .9-2.4c1.1-2.6 1.1-2.6 3.1-3.6.8-3.4.8-3.4 1-7l-2-2c2.8-2 2.8-2 6-4l3 1-1-3c14.4-10.7 29-19.9 44.7-28.5q8.3-4.5 16.2-9.8 8-5 16.7-8.5l3-1.3A510 510 0 0 1 434 75l3.1-.8a399 399 0 0 1 66-11l2.3-.3 6.1-.5 3.6-.3c2.9-.1 2.9-.1 5.9.9"/><path fill="#275f9b" d="M264 375h1v2.4c-.5 41.6-.5 41.6 3 48.6v-3l.6-2.6c.4-2.4.4-2.4-.6-4.4l8-2v-2h2v4h3l1-4-.1 3.1c.1 3.9.9 6.3 2.1 9.9l1.9 7.2c4.7 18 4.7 18 11.1 23.8l2.4 3.8c14.7 24 50.9 42.8 77.2 49.9q9.6 1.9 19.4 2.3v1c-9.5.4-18.1-.4-27.5-2.3l-5.9-1.2c-25-5-49-12.6-68.6-29.5l-2.5-2.1c-6.8-6.3-11-14-15.5-21.9a85 85 0 0 0 41 52 89 89 0 0 0 20 7l2.4.6q6 .7 12.3.5h2.6q6.1 0 12.4-.6 10.2-1 20.4-1l4-.2 9.9-.3-1-2h10c5.6-.1 5.6-.1 8 .5q3.4.8 7 .6h27.4l17.6-.1 1 2-4 1-1-1-6.5-.1h-3.6c-2.9.1-2.9.1-3.9 1.1-8 .5-16-.3-24-1v2l2-.1q11.6-.1 23.2 1.5l3 .4q7.3.9 14.4 2.1l2.4.4c2 .7 2 .7 4 3.7q-15-.8-29.7-2.5c-23.2-2.6-46-3.3-69.2 0l-9.2 1c-11.8.9-23.5 2.1-34.6 6.6-11.3 4.5-28 3-39.3-1.1l-2-.7-14-5.3c3.4-1.1 4-.9 7.2.4l2.5 1 2.6 1A65 65 0 0 0 316 530l1-2h-10v-2l-1.8-.7-8-3.2-3-1.2-2.6-1-2.5-1c-2.6-1.1-4-1.9-6.1-3.9v2h-2v-4c-1.6-1.7-1.6-1.7-3.8-3.2l-2.2-1.6c-2-1.2-2-1.2-5-1.2.9-4.7.9-4.7 2-7h3l-1 6 3.3-.1c3.4 0 5 .3 7.7 2.1h-8c16.7 10.3 16.7 10.3 24 13l2 .7c9.8 3.8 18.3 6.3 29 5.3l-2.9-1.3L317 520l-3-1.4c-8-4-14.4-9.6-21-15.6l-2.5-2.2c-19.5-18.5-27.7-44-31.5-69.8l-.6 4.8q0 1.4-.3 2.7c-.1 2.5-.1 2.5.9 5.5q-.4 4-1 8l-2-4a64 64 0 0 0 5 20.7c5 13 14.3 28.3 26 36.3l-1 2c-12-10.5-12-10.5-16-17v-2h-2l-2-2h-4c2.1 2.1 3.1 2.4 6 3l-1 3h-10l-5 2v5l-4-1v-2h2v-4l1-1-3-3h4l-10-8c-3.3 4.4-3.3 5.7-3 11l4-2 2 3-3 1-2 2c-7.5-8-15-18-15-29.6l.7-5q.4-3.6-.1-7.3a161 161 0 0 1-.8-19c0-4.8.3-8.6 2.2-13.1 2.3 2.8 3.7 5.4 5 8.8q1.7 4.8 4.3 9.2c1.7 3 1.7 3 1.7 5h2l-.6-2.1c-3.4-12.4-6.4-29.7.1-41.7l1.5-2.2 2-5h1l.5 2.2q2.2 9.9 6.4 19 2 4.8 3.1 9.8c1-3.4 1-6.3.7-9.8-.1-13.3 4.5-26.9 9.3-39.2"/><path fill="#2a3d65" d="m442 277 1 2-1.9 5.4c-8.7 23.4-7.5 48-7.1 72.6l-3-1c-1.4 28 11.2 50 29.5 70.4 7.5 8 16.1 14 25.5 19.6l1.8 1c29.9 17.5 62 18.8 95.7 16.2q8.3-.4 16.5-.2v2l3.4.4 3.6.6 1 2h2.3c5.7 0 5.7 0 7.4 1.5l1.3 1.5h-2.4c-40.3.9-40.3.9-57.6 11l-1 2 2.5.1c31 1.8 31 1.8 43.5 4.9l2.7.6c5.4 1.6 9.6 4.1 13.3 8.4v2c-3.4-.4-6-1.4-9-2.9-11.5-5.2-23.8-6-36.2-7.2l-2.7-.3q-17.9-1.7-35.9-2a348 348 0 0 1-46.9-4.7l-14.8-2a176 176 0 0 1-60.5-20c-2-.9-2-.9-4-.9v2h2c1.5 2.1 1.5 2.1 3.2 4.9q.7 1.4 1.7 2.7l1.1 2.4-1 2c-8.4-3-15.6-7-23-12-3-2-3-2-5.3-3.1s-2.7-2.6-3.7-4.9l-3-3h3l-1-2 4 2v4l3-2v-2l-1.8-.8C380 445.2 375 435 370 426l-1-2c-13.7-24.7-23-57-15.1-85.1 2.6-6.6 5.7-14.1 11.1-18.9l-.4 6.3-.3 3.9-.9 9.6c-2.3 28 2.8 57 19.6 80.2l4 3 4 5a123 123 0 0 0 73 45l2 .4c28 5.7 62.1 9.9 90 2.6l-2.2-.1A255 255 0 0 1 482 462l1-3-2.6-.7A61 61 0 0 1 453 434v-2l-2 1 2 2.4c2 2.6 2 2.6 2 4.6-1.8.7-1.8.7-4 1-6.2-3.7-10.5-11.2-14.5-17l-1.6-2.3A19 19 0 0 1 431 407c.5-2.5.5-2.5 1-4-1.6 1.6-2.2 3.9-3 6-9-9-11.1-30.8-11.1-42.7v-21.7c.3-8.8.3-8.8 2.1-10.6l.4-3.4c.6-3.6.6-3.6 2.6-6.6.1 6.8.1 6.8-1 9 0 14.8 2 29.1 7 43q-1.3-6.2-3.3-12.2c-7.7-30 1.8-60.7 16.3-86.8"/><path fill="#9ec2cf" d="M231 376c0 5-3.2 9.4-5.5 13.8a95 95 0 0 0-5.3 70.8A108 108 0 0 0 240 494l4-3-4-1-1 2c-1-3.7-1.2-6.4 0-10l3-3 11 8-3 3h2v2h-2v4h-2v2l4 1-1-5c3.9-4 3.9-4 7-4q3 .4 6 1h3v-2l-5-1v-2l5-1 1 3h2l2.7 4c3.5 5.2 7.5 10.6 13.3 13l-2.7-2a58 58 0 0 1-10.2-11.4c-9.3-12.3-18.4-28.5-18.2-44.4v-2.4l.1-1.8h1l1 5c1.1-5.5 1.1-5.5.5-7.9-.6-2.6-.4-4.7 0-7.4l.3-2.6.2-2.1c2 3 2.4 4.2 2.9 7.5l.4 2.8.4 2.9A108 108 0 0 0 288 497l2 2.3a106 106 0 0 0 39.9 25.8c2.1.9 2.1.9 3.1 2.9a67 67 0 0 1-32-6l-2.6-1c-8-3.1-15.2-8.4-22.4-13l4-1-6-1 1-6h-3l-1 6 1.6.7q4.9 2.8 9.4 6.3l-1 4h2v-2q3.6 1.3 7 3l7 3q5.6 2.3 11 5l-1 2 2.2-.6c3-.4 5-.1 7.8.6l-1 3a89 89 0 0 1-28.5-5.7l4.7 1.6 2.3.9a55 55 0 0 0 20 3.3h2.3q5.6.2 11.2-1.1l1 2-1.6.4c-17.2 4.5-33 15-47.3 25.4a98 98 0 0 1-8.1 5.2v-3c-6.5 1.5-6.5 1.5-8.9 4l-2.1 4h-3v2l2 1h-2.1c-4.5 1.5-6.4 5.2-8.9 9l-1-2a107 107 0 0 1 33-31c-13.1 1.8-25 7.2-36.4 13.4l-2.5 1.4q-7.5 4.2-14 9.7c-2.1 1.5-2.1 1.5-4.3 2.6-2.4 1.2-2.7 2.5-3.8 4.9l-3.2 4c-13 16.5-13 34-11 53.9l.3 2.3c.5 3.7 1.1 6.5 2.9 9.8v6q-5.8-8.7-5-19h-4v-4h2v-4l-2-1 1-6h-2l-1 4c-1.3-4.4-.8-8.2-.3-12.7l.3-2.4c.7-6 2-10.6 5-15.9.6 1.8.6 1.8 1 4l-2 3v6l3.2-9.2c.8-2.8.8-2.8-.2-4.8 0-6.5 4.3-10.8 8.4-15.5 1.6-1.5 1.6-1.5 3.6-1.5l.8-1.8c4.2-7.6 13.7-13.3 21.2-17.2h3v-2l6-3.6 3.4-2 2.6-1.4-2-.7c-16-6.2-30.1-14.9-42-27.3l-2.6-2.6A79 79 0 0 1 188 483l1-4 .8 1.8c4.4 9.4 10.7 17.1 17.2 25.2l-1.5-2.5A114 114 0 0 1 189 464l1-3 1.3 3.2A163 163 0 0 0 219 511l1.8 2.3A66 66 0 0 0 261 537l1-4-2-1-1 4c-9.9-1.4-18.8-10.5-25.4-17.6a15 15 0 0 1-2.6-7.4l2 1.2a511 511 0 0 0 23.1 12.8l2 1 5.3 2.4c2.6 1.6 2.6 1.6 3.5 3.7l.1 3.9h-3v2h4v-4h2v-3l9 1-2-.5a82 82 0 0 1-38.4-25.2l-5.7-6.5a105 105 0 0 1-29.4-72.6c.6-16.5 5-31 16.3-43.2a63 63 0 0 1 11.2-8"/><path fill="#f7f9ee" d="M417 328h1l-.2 2.8c-2.8 39.3 1 74.1 27.2 105.2 17.6 20.2 42 27.6 67 34l2.4.6c13.8 3.4 28.4 3.6 42.6 4.4l-1 2c-27.2 8.6-64.6 2.7-92-3l-2.1-.4a118 118 0 0 1-54.4-26.9c-13.2-11.3-24.3-24.5-28.5-41.7l-.8-2.8A67 67 0 0 1 376 380h1l.6 3.1c4.3 22 15.9 37.4 32.4 51.9v-7c3.5 1.4 5.1 3.1 7.3 6.1l1.9 2.5 1.8 2.4c7 9.1 15.8 14 26 19l1.9.9c3.3 1.5 5.3 2.1 9.1 2.1l-2.3-1.6q-9-6.6-17.4-14.3-3-2.8-6.3-5.4C410.6 421 397 389 395 361v-13l2-1 .4 3.2C399 361 402.2 370 407 380l4 9-.2-2.4c-1.7-20.1-1.9-39.7 6.2-58.6"/><path fill="#213f71" d="M179 692q4.4 4.1 8 9c10.5 13.6 23 26.4 36.5 37l6.5 5.6c4 3.6 8.5 6.4 13.1 9.3l6.6 4C290 782.4 290 782.4 310 787a26 26 0 0 0-8-9v-2l3-1 2 3 3-3v8h2v-5c4 4.5 4 4.5 4 9h2l1.8 1.8c2.5 2.5 4.7 3.6 8 5l3 1.3 2.2.9-3.4-3-1.9-1.6C326 790 326 790 324 789v-3q4.4-2 9-3c5.1 2.1 7 7.5 9.5 12.2q2.9 5.1 6.5 9.8l-2-.6-2.5-.8-2.5-.7c-6.8-2-12.9-3.2-20-3.4-9.9-.3-18.1-2.1-27.1-6.5l-2.5-1.2q-11.8-6-22.4-13.8l-1.7-1.2q-10.7-8-20.6-16.9a36 36 0 0 0-8.7-5.9 415 415 0 0 0 105 73.5l3.1 1.5q10.1 4.8 20.9 8l-1 2-11-3v2l3 1v3l1.7-.6c2.8-.5 4.6-.3 7.3.6 1.3 2 1.3 2 2 4h-2l1 2h3l-1 5 5 1v2h2l1-2h6l-1 2-3 1 8 3c-4.6 1.1-5.7.7-10-1l-3.4-1.4-3.8-1.5-3.8-1.6c-39.6-16-78-39.2-109.4-68.2L251 780q-9.2-7.6-17.6-16.4l-5-5A281 281 0 0 1 212 741l-1.5-1.8a266 266 0 0 1-26.9-37.8q-.8-1.5-2-3l-1.5-2.5C179 694 179 694 179 692"/><path fill="#e4eee9" d="M283 395c2.4 3.5 3 7 3.8 11a76 76 0 0 0 7.2 20l1.8 3.4A123 123 0 0 0 330 470l3.8 3 14.8 11c24.6 18.6 56.9 20.5 86.4 23l3.8.3q18 1.5 36.3 2.4c35.6 2 35.6 2 41.9 5.3l8.7 1.6 2.3.4v1q-9.3-.5-18.4-2c-22-3.4-43.5-3.5-65.7-3.3l-14.5.1-28.4.2 1 2h-2.6l-9.7.4-4.1.1q-10.7.2-21.3 1.3a80 80 0 0 1-60.7-16.8c-12.7-10.6-25-26.4-28.6-43l1-2 2 3.4c17.2 27.4 42.9 40.6 73.8 47.8q16 3.6 32.2 5.8l-2.2-.4c-28.7-5.6-64.7-25.4-82.3-49.3L298 460l-1.2-1.7a64 64 0 0 1-7.4-16.2l-1-2.7c-4.6-14.8-5.9-29-5.4-44.4"/><path fill="#fda137" d="M644 570a82 82 0 0 1 22.8 36.3c5.7 18.2 7.8 36.8 5.2 55.7l-2-4-5 2v-2l-1.2 3a155 155 0 0 1-54.8 72l-2 1.5a158 158 0 0 1-42 22.5v-2c1.4-1.2 1.4-1.2 3.4-2.6l2.2-1.5 2.5-1.7a260 260 0 0 0 26.9-22c14.3-13 14.3-13 20-20.2l2.3-2.8A120 120 0 0 0 647 659h-4a68 68 0 0 1 1.4-15.4l.9-4.5.4-2.2c3.3-19 .9-37.7-5-56-.7-2.8-.9-5-.7-7.9l4 1-1 5 3 1-1-3v-4z"/><path fill="#225a98" d="M302 330h1a214 214 0 0 1-2.2 17.1A137 137 0 0 0 307 414l-.4-2.5q-2.1-13.8-2-27.8v-2.2c.1-10.7.5-21.1 3.4-31.5l.8-2.9c1.2-2.1 1.2-2.1 3.8-3l2.4-.1-.9 3a95 95 0 0 0 8.5 69.3c10.5 17.6 27 32.8 43.4 44.7-7.2 2.4-16.4-3.5-23-6.7q-10.7-5.7-21-12.3l-5-3a169 169 0 0 0 21 31.6c2 2.4 2 2.4 4 5.4l-1 2c-23.1-10.7-43.2-36.8-52-60.3q-3-9.7-5-19.7l-1 6h-1c-1-12.6 1.9-23.9 5-36l.7-2.8c7-28 7-28 14.3-35.2"/><path fill="#f5f7ec" d="M859 319h5l-4 1 2 2h4l2 4h2l2-7c11.9 17.8 11.6 50 12 71v2.6c1.4 47.3-5.3 100.7-39 136.6-12.7 13.2-12.7 13.2-21 13.8a26 26 0 0 1 5.7-9.4c10-12.4 13.6-26.5 17.3-41.6l3.9-16.3 2.9-11.5q1.2-4.9 1.8-9.9l.4-3.3 2-1c-1.1 21-2.3 41.5-11 61 28.7-54.8 29.8-125.6 13-184.3-1-3.7-1-3.7-1-7.7"/><path fill="#dc591a" d="M480 525c6.8.4 11.3 2.4 17 6v-2l-2.4-.9C492 527 492 527 490 525c13.7.3 27 5 40 9v-1c4.3-.3 7.2.7 11.1 2.5 5.6 2.5 5.6 2.5 8.9 2.5l-10-4v-1c7 .3 12 1.5 18 5l2-2v2h2v2l5 2-2.2-2.2-7.8-7.8c1.6-.8 1.6-.8 4-1a62 62 0 0 1 8.6 5.9l5.4 4.1 2.5 1.9c15.2 12.4 30 34.9 34.5 54.1l-1 2c-3-2.7-5.1-5-7-8.5a33 33 0 0 0-7-8.5l-2.4-3c-2-2.4-3.4-3.6-6-5.2L586 572v-2l-3-1v-2l-1.8-.8c-2.2-1.2-2.2-1.2-3.6-2.9L576 562c-2.7.3-2.7.3-5 1l-1-4 1-1-5.4-4-3-2.2C560 550 560 550 558 550v3l2 1-1 4-1-2h-2l.5 2.9c.5 3.1.5 3.1.5 5.1 1.3 1.4 1.3 1.4 3.1 3a66 66 0 0 1 18 44.7q0 4.3-1.1 8.3c-3-1.5-3-3.5-4-6.6-6.1-16.2-16.7-30.3-28.8-42.5l-1.7-1.7a34 34 0 0 0-7.2-5.7c-2.8-1.8-3.6-3.7-5.3-6.5-2.3-1.5-2.3-1.5-4.8-2.8-3.7-2-5.8-3.7-8-7.2-3.2-4.5-6.9-6.2-11.8-8.4q-6.6-3.1-13-6.8-6.1-3.2-12.4-5.8z"/><path fill="#3169a1" d="M264 375h1v2.3c-.8 40.6-.8 40.6 4.1 59.2.9 3.5.9 3.5.9 7.5h-2c-2.3-3.7-2-6.7-2-11l-.5-2.4q-.9-5.3-.5-10.6l-5 4-1-1-.6 8.8-.1 2.5-.2 2.5-.1 2.2c0 2 0 2 1 5q-.4 4-1 8l-2-4a64 64 0 0 0 5 20.7c5 13 14.3 28.3 26 36.3l-1 2c-12-10.5-12-10.5-16-17v-2h-2l-2-2h-4c2.1 2.1 3.1 2.4 6 3l-1 3h-10l-5 2v5l-4-1v-2h2v-4l1-1-3-3h4l-10-8c-3.3 4.4-3.3 5.7-3 11l4-2 2 3-3 1-2 2c-7.5-8-15-18-15-29.6l.7-5q.4-3.6-.1-7.3a161 161 0 0 1-.8-19c0-4.8.3-8.6 2.2-13.1 2.3 2.8 3.7 5.4 5 8.8q1.7 4.8 4.3 9.2c1.7 3 1.7 3 1.7 5h2l-.6-2.1c-3.4-12.4-6.4-29.7.1-41.7l1.5-2.2 2-5h1l.5 2.2q2.2 9.9 6.4 19 2 4.8 3.1 9.8c1-3.4 1-6.3.7-9.8-.1-13.3 4.5-26.9 9.3-39.2"/><path fill="#f9faee" d="m665 656 2 3 3-1 1-2c.9 27-19.7 52.4-37 71l-6.4 6.5c-33.9 35.7-95.5 62.8-144.6 64.6h-8.6l-5.4-.1v-1l3.2-.6A241 241 0 0 0 558 759l1.9-1.2c3.4-2 5-2.8 9.1-2.8q4.3-1.4 8.3-3.4l2.4-1q11.8-5.7 22.3-13.6l3.1-2.2A165 165 0 0 0 665 656"/><path fill="#225a98" d="M177 480c2.8 2.8 3.2 6 4.2 9.6q3 10.5 7.6 20.4c2.2 4.8 2.2 4.8 2.2 7h2l3 3.5c3.4 4 7 7.2 10.9 10.5q2.9 2.6 5.2 5.7c2.9 3.5 6.2 5.7 9.9 8.3l1 2-.6-7-.4-2-2-1 1-3 2.2 2.8a23 23 0 0 0 7.8 6.2l-3 2 4 4-5 1c1 2 1 2 4 3.1l3 .9v3h-4l-2.6.4c-9.8 1.5-15.2-1.6-23-7.3a79 79 0 0 1-9.4-8.1c-3.9 1.2-5.2 3.6-7.2 7-2.1 5.1-2 10.4-2 15.8v8.1l-.1 8.1a161 161 0 0 0 7.3 50.1l2 6.9 2-2 3.4 10.3 2.8 8.3q1 3.1 1.8 6.4c-4.5-1.4-6.3-3.1-9-7l-1.4-2c-5-7.7-7.8-16.2-10.6-25l-.8-2.3c-15.2-45.5-16-97.9-6.2-144.7"/><path fill="#6eaed5" d="M438 132c2 2.6 2 2.6 3 5l-2.4-.5c-30-4.2-68.4 17.9-93.6 32.5l1.8-.6c26-7.8 51.6-15.4 77.8-4.7 2.4 1.3 2.4 1.3 4.4 4.3l-2 2-2.2-.6-3-.8-2.8-.8c-6.1-1.6-11.8-2-18-2h-2.6q-10.2.1-20.4 1.2v2l1.8.3c4.8 1 9 2 13.2 4.7l3 5-3.1-.9c-21-5.7-37.2-1-56 9.8l-3.6 2q-13.9 8.2-29 13.7c-17 6-17 6-21.3 12.4l-2-1 1-2-3 1v-2q3.7-2.3 7.6-4.4a10 10 0 0 0 4.4-5.6c-5 .8-9 2.8-13.6 5l-2.4 1-2-1c27-27.7 27-27.7 35-32 2.2 0 2.2 0 4 1l2 3c6.5-1.4 11.4-4.5 17-8l16-9.4a334 334 0 0 1 33.6-17.9q11.6-5.8 23.6-10.2l2-.7a48 48 0 0 1 31.8-.8"/><path fill="#fca036" d="M763 562c7 6.6 10.4 13.5 14 22.4l1.3 3.3c4.3 11.1 6.7 22.5 8.7 34.3 3.1-4.7 3.2-8.7 3.6-14.2l.2-3.9.2-2.9c2.4 3.6 2.3 6.4 2.3 10.6V624A136 136 0 0 1 783 680l-.8 2.2c-3.5 9.3-7.6 17.6-13.3 25.8-1.9 3-1.9 3-2.8 6-1.4 3.9-3.8 6-6.8 8.6l-1.5 1.4a43 43 0 0 1-8.6 6.1C746 732 746 732 745 735c-2.3 1.4-2.3 1.4-5 2.7L737 739l-2.1 1c1.6-5.2 3.9-9.7 6.5-14.4 4.6-10.9 5.3-22.2 6.2-33.9l.4-4.8.9-11.9h1l.9 9.3.2 2.6.3 2.6.2 2.3a17 17 0 0 0 2.4 6.2l2 1-.4 4.3-.3 2.4c-.3 2.3-.3 2.3-1.3 5.3 6.3-16.8 3.3-35.1-1.4-51.8A116 116 0 0 1 750 645c6.8 2.6 10.3 10.5 13.4 16.7 3.7 9.6 3.4 20.1 3.6 30.3l3-8.6.8-2.4a65 65 0 0 0-2.9-48.2c-.9-2.8-.9-2.8.1-5.8h2l-2-11a33 33 0 0 1 5.6 11.3l.6 2.1c2.1 7.1 3 14.2 3.8 21.6 3.5-23.8 1.9-45.4-12.7-65.4l-3.1-3.9a14 14 0 0 1-2.2-5.7h2c1.5 1.5 1.5 1.5 3.1 3.5l1.7 2 1.2 1.5q-2-10.6-5-21"/><path fill="#6babd4" d="M364 320h1l-.4 6.3-.3 3.9-.9 9.6c-2.3 28 2.8 57 19.6 80.2l4 3 4 5a124 124 0 0 0 80.4 46.2l3.1.3c2.5.5 2.5.5 5.5 2.5l7.4 1c4.5.5 8.4 1 12.6 3v1h-6v-2l-2 1c-27.4 1.7-52.2-6.9-76.4-19.2-3.6-1.8-3.6-1.8-5.6-1.8v2h2c1.5 2.1 1.5 2.1 3.2 4.9q.7 1.4 1.7 2.7l1.1 2.4-1 2c-8.4-3-15.6-7-23-12-3-2-3-2-5.3-3.1s-2.7-2.6-3.7-4.9l-3-3h3l-1-2 4 2v4l3-2v-2l-1.8-.8C380 445.2 375 435 370 426l-1-2c-13.8-24.7-23-57-15.1-85.1A100 100 0 0 1 364 320"/><path fill="#215896" d="m449 232 2 1q-4.4 6.8-9.2 13.5l-1.4 2C439 250 439 250 436 251l-1 4-3 3a70 70 0 0 0-9 14l-2 1v4h-2l-2 6 4-1-2 6-.8 2.6q-2.5 6.8-5.5 13.3-8.4 19.5-13.7 40.1h-2c-.4-18.8 1-34.1 7-52-12.9 20.8-24.7 40.7-27.1 65.6l-.3 2.6c-1.8 20.4-.8 41.1 9.3 59.4l1.1 2.4-1 2a81 81 0 0 1-21.3-57.4c.8-22.6 7.4-40.6 18.2-60q3.6-6.3 6.7-12.6 5.9-11.5 13.4-22l1.4-2 4.7-6.4 1.4-2c3.2-4.3 6.8-9 11.5-11.6 2 .3 2 .3 4 1h3l-3 4h-2l-.2 2c-1.1 4.2-3.4 7.4-5.8 11l2-2.5 7.4-9.4 9.5-12.1a42 42 0 0 1 9.1-9h2z"/><path fill="#1d4f8b" d="M521 63v1h39v4l3-1 1-2h4.8l2.6-.1c2.4 0 4.3.4 6.6 1.1l-1 3-1-2h-2v3h-4v-2h2v-2h-4v5h6v1h-8v-3l-2-1v3h-23l4-3 1-1c-2.9-.6-2.9-.6-6-1l-2 2c-1.9-.3-1.9-.3-4-1l-2.2-.6-1.8-.4v2h-2v-2l-7 1-1 3h2v-2h4v2h5l1-2v2h8v1h-27l-4 1-1-4-2 2v2a27 27 0 0 1-15-1l-3-3v4q-3.1-.6-6-2v2h-4v-2l-2 1-1 3c-2 0-2 0-3.6-1.5L470 71c.3 1.9.3 1.9 1 4l3 2-1.8.2c-3.6.3-6.7.6-10 2-2.6 1-3.7.7-6.2-.2l4-1v-2l-5-1v6l-13 3.4-4.3 1.1-6.3 1.7-3.9 1q-4.7 1-9.5 1.8l2-1-3-4-2 2-2-2-1 5-4-1v3l3 1-6.3 2.6L401 97c-3.1 1-3.1 1-6.1 0l3-2-2-2-2 3h-2v2c-2.3.6-2.3.6-5 1l-3-2c-3 0-3 0-6 1v2l3 1 1 1 3 1-13.8 6.3-2.2 1c-2 .7-2 .7-5 .7v-3l-2 2 1 3-3 1.5a285 285 0 0 0-22.7 12.2L333 129l-2-1 1-2c-2.9.2-2.9.2-6 1-1.4 2.6-1.4 2.6-2 5h2l1-3 3 2a80 80 0 0 1-11.9 9.1A378 378 0 0 0 271 176l-2-1 4-4-1-3 2.2.2c3.6-.3 4.5-1.3 7-3.9 11.6-11 25.5-19.6 38.8-28.3l-2.9 1.4L306 143l-2-3-2-2c.1-2 .1-2 1-4 2-1.7 2-1.7 4.4-3.4l2.8-1.8q13.1-8.2 26.8-15.4l2.9-1.5 2.6-1.4c2.5-1.5 2.5-1.5 5-3.5 5.1-4 11.5-6.4 17.5-9l2.6-1.1A448 448 0 0 1 503.2 63l2.2-.2 6.1-.5 3.6-.3c2.9-.1 2.9-.1 5.9.9"/><path fill="#62a5d1" d="M225 539c3.4 1 6.1 2 9.1 4 4.2 2.5 8.6 3 13.4 3.5l2.5.5 1 2-2.4 1.3C246 552 246 552 244 555h-2v2l-2 .9a49 49 0 0 0-13.6 9C225 568 225 568 223 568l-1 3-3.6 3.1A42 42 0 0 0 205 592l2 1-.6 2-.8 2.7-.8 2.6-1.8 7.7-2-2 1-7v-2c-2.7 9-3.6 17.6-4 27l1-3 3-1v7l1 1v6l-1-2h-2v4h4l.6 2.9.8 3.8.8 3.8c.8 3.5.8 3.5 2 6.3 1 2.8.6 4.4-.2 7.2l-3-3 2-1v-2h-3a32 32 0 0 1-3-16l-5 2c-3.2-3.2-3.8-7.6-5-12l-.7-2.6a170 170 0 0 1-5.7-46.9v-15.7c0-8.7 2.4-15.4 8.4-21.8a25 25 0 0 1 7 4.7c7.3 6.3 14.2 11.4 24 11.3h6l1-2h3l-5-2-1 2c-1.1-2.3-1.1-2.3-2-5l2-3v3l2-2-3-4 3-1-2.5-1.4-2.5-1.6z"/><path fill="#205692" d="M448 491c20.2-.5 40.4.3 60.6 1.3l3.5.2c22 1.1 43.5 3.2 64.9 8.5-3.3 1.3-6.1.8-9.6.3-18.3-2.1-37.2 0-55.4 2.7l2.6.4 7 1c3.4.6 3.4.6 6.4 1.6 4.5 1.5 9 1.9 13.8 2.4 2.8.5 4.7 1.1 7.2 2.6l-5 1 8 1 1-2 3 2-1 2h-3l-1 3h-3l4 3q-11-1.3-21.7-3.4l-3.7-.7-3.6-.6-3.2-.6c-2.8-.7-2.8-.7-4.8-1.7-2.6-1.3-4.8-1.5-7.7-1.8l-3.5-.3-3.8-.4-2-.2q-16.1-1.5-32.2-2.2a937 937 0 0 1-41-3l-2.7-.3A172 172 0 0 1 377 498c3.2-1 4-1 7.2-.2l2.4.6 2.5.6 5 1.2 2.2.5 1.7.3 1-1q5-.3 10.3-.2h3q11 0 21.7 2.2c-2.8-2.8-4.9-2.6-8.8-3q-1-.2-2-.3l-6.3-.8-4.3-.6L402 496c5-5 16.7-3.1 23.5-3.1h20.1q7.1 0 14.4 1.1l-1 2a315 315 0 0 0 26.3 3.4q9 .8 17.7.6c-1.8-1.6-1.8-1.6-4-3l-3 1v-2h-3v3l-3-1 1-2c-5.6-1.1-5.6-1.1-9 0l-1-2q-3.7-.5-7.3-.6l-2.2-.2-7-.3-4.8-.3-11.7-.6z"/><path fill="#5a9bca" d="M258 428c2 3 2.4 4.2 2.9 7.5l.4 2.8.4 2.9A108 108 0 0 0 288 497l2 2.3a106 106 0 0 0 39.9 25.8c2.1.9 2.1.9 3.1 2.9a67 67 0 0 1-32-6l-2.6-1c-8-3.1-15.2-8.4-22.4-13l4-1-6-1 1-6h-3l-1 6 1.6.7q4.9 2.8 9.4 6.3l-1 4h2v-2q3.6 1.3 7 3l7 3q5.6 2.3 11 5l-1 2 2.2-.6c3-.4 5-.1 7.8.6l-1 3a77 77 0 0 1-29.3-6.3q-4.4-1.6-9-2.8c-12-3-23.4-10.8-31.7-19.9l-2.9-2.5c-2.1-2.5-2.1-2.5-2-5.2.9-2.3.9-2.3 2.9-3.3l-4-1-1 2c-1-3.7-1.2-6.4 0-10l3-3 11 8-3 3h2v2h-2v4h-2v2l4 1-1-5c3.9-4 3.9-4 7-4q3 .4 6 1h3v-2l-5-1v-2l5-1 1 3h2l2.7 4c3.5 5.2 7.5 10.6 13.3 13l-2.7-2a58 58 0 0 1-10.2-11.4c-9.3-12.3-18.4-28.5-18.2-44.4v-2.4l.1-1.8h1l1 5c1.1-5.5 1.1-5.5.5-7.9-.6-2.6-.4-4.7 0-7.4l.3-2.6z"/><path fill="#235b99" d="M370 281h3v3h-2l-.1 1.8q-.8 9.8-2.8 19.3-1.6 8.4-2.1 16.9l-3 1-4 7.4-1.1 2c-10.3 20.7-5.3 47 1.5 68 6.2 17.9 15.4 36.8 29.6 49.6l3 3-4 2-2-5v2h-3l4 4a34 34 0 0 1-12-7v-2h-2c-11.5-10.3-17.7-26.2-24.4-39.8-4-8-9.9-12-17.6-16.2l1-5c4.3-1.3 6.9-.6 11 1l2-2-4-3v3l-3-1 1-3c5-2 5-2 7-2l-.6-1.8c-2.6-8.4-3.1-16.5-3.4-25.2l-.2-2.5c-.9-21.3 11.3-43.5 24.6-59.3 2.2-3 3-5.5 3.6-9.2"/><path fill="#5293c3" d="m238 563 2 1c0 3 0 3-1.6 4.6l-2.2 1.7c-5 4.3-8 8-9.2 14.7l-2 1 2 5-2 1-1 3 3-1v-2.2c1.4-4.1 4.4-5.6 8-7.8l2 1-1 3h2c1 3 1 3-.5 6.3l-2.2 4A87 87 0 0 0 226 626h-2v1.9a148 148 0 0 1-.5 15.3c-.5 1.8-.5 1.8-3.5 3.8h2c1.2 25 1.2 25 1 35a43 43 0 0 1-12-27h-2l-.4-2-.5-2.4-.6-2.5c-.5-2.1-.5-2.1-1.5-3.1-3.6-23.2-4-42.8 9.9-62.7 6-8 13.6-14 22.1-19.3"/><path fill="#97c0d3" d="M382 464c1.7.7 1.7.7 3.8 2l8.3 4.8A126 126 0 0 0 458 490v1l25 2v2l6-1 3 4 1-3 3 1v2h2l1-2 5 5c-10.5.4-20.8-.9-31.2-2l-5.5-.6L454 497v-1l5-1a92 92 0 0 0-15.6-1.1H428c-8 0-16 0-24 1.1l2.3.4 10.4 1.5 3.7.6 3.5.5 3.3.5q3.4.6 6.8 1.5v2l-2.3-.2q-13.3-1-26.7-.8v1a66 66 0 0 1-29-6v-3l-2.6.7c-4.4.4-6.4-.7-10.4-2.7l5-4 2 1v2l6 1v-3h2v-2l-5-1 2-5-2.7.7c-3.3.3-3.3.3-5.7-.8-1.6-1.9-1.6-1.9-1.9-5l.3-2.9 4-2 3 1v-2l4-1v3l5-3-1-3z"/><path fill="#63a6d2" d="M189 461c2.1 2.1 3 4 4 6.8a145 145 0 0 0 26 43.2l1.8 2.3A66 66 0 0 0 261 537l1-4-2-1-1 4c-9.9-1.4-18.8-10.5-25.4-17.6a15 15 0 0 1-2.6-7.4l2 1.2 10.4 6 2.1 1.2q5.2 3 10.6 5.6l2 1 5.3 2.4c2.6 1.6 2.6 1.6 3.5 3.7l.1 3.9h-3v2h4v-4h2v-3l5.8.5 3.3.3c2.9.2 2.9.2 5.9.2v-2l4-1v1l8 1v2h7v3h-2v2c3-2 3-2 4-4l4 1v3c-2.5 1.6-3.7 2-6.7 1.8l-2.3-.8-1-2-4-1v3h-1.8a58 58 0 0 0-32 7.4c-3.5 1.7-5.5 1.7-9.2.9-23.6-8-46.5-25-58-47.3-7.6-15.5-7.6-15.5-6-21l.8 1.8c4.4 9.4 10.7 17.1 17.2 25.2l-1.5-2.5c-7.2-12-16.5-28-16.5-42.5"/><path fill="#215895" d="m442 277 1 2-1.9 5.4c-8.7 23.4-7.5 48-7.1 72.6l-3-1c-.4 15.1-.4 15.1 1.5 22q.6 3 .8 6.2c.6 6.7 3.9 12.8 6.7 18.8h-2v3h2l1-2 3 4.2 1.6 2.3c1.4 2.6 1.9 4.6 2.4 7.5l4 4v2h-3l2 2.9c2 3.1 2 3.1 2 5.1l-2 1 2 2.4c2 2.6 2 2.6 2 4.6-1.8.7-1.8.7-4 1-6.2-3.7-10.5-11.2-14.5-17l-1.6-2.3A19 19 0 0 1 431 407c.5-2.5.5-2.5 1-4-1.6 1.6-2.2 3.9-3 6-9-9-11.1-30.8-11.1-42.7v-21.7c.3-8.8.3-8.8 2.1-10.6l.4-3.4c.6-3.6.6-3.6 2.6-6.6.1 6.8.1 6.8-1 9 0 14.8 2 29.1 7 43q-1.3-6.2-3.3-12.2c-7.7-30 1.8-60.7 16.3-86.8"/><path fill="#3874ac" d="M272 500h3l-1 6 3.3-.1c3.4 0 5 .3 7.7 2.1h-8c16.7 10.3 16.7 10.3 24 13l2 .7c9.8 3.8 18.3 6.3 29 5.3l-2.9-1.3c-22.6-10.4-22.6-10.4-26.1-15.7l-2-3h2c1.5-2.6 2-3.9 2-7l2 1.4a84 84 0 0 0 59.7 14.1q10.2-1 20.4-1l4-.2 9.9-.3-1-2h10c5.6-.1 5.6-.1 8 .5q3.4.8 7 .6h27.4l17.6-.1 1 2-4 1-1-1-6.5-.1h-3.6c-2.9.1-2.9.1-3.9 1.1-8 .5-16-.3-24-1v2l2-.1q11.6-.1 23.2 1.5l3 .4q7.3.9 14.4 2.1l2.4.4c2 .7 2 .7 4 3.7q-15-.8-29.7-2.5c-23.2-2.6-46-3.3-69.2 0l-9.2 1c-11.8.9-23.5 2.1-34.6 6.6-11.3 4.5-28 3-39.3-1.1l-2-.7-14-5.3c3.4-1.1 4-.9 7.2.4l2.5 1 2.6 1A65 65 0 0 0 316 530l1-2h-10v-2l-1.8-.7-8-3.2-3-1.2-2.6-1-2.5-1c-2.6-1.1-4-1.9-6.1-3.9v2h-2v-4c-1.6-1.7-1.6-1.7-3.8-3.2l-2.2-1.6c-2-1.2-2-1.2-5-1.2.9-4.7.9-4.7 2-7"/><path fill="#fc9f35" d="M645 793c-.4 4.9-1.3 6.8-5 10-9.1 5.4-19.9 6.2-30.2 7.5a62 62 0 0 0-26.4 9.4A137 137 0 0 1 497 835c3.3-1.9 6.4-2.6 10-3.3l3.7-.7 3.9-.7q17.4-3.4 34.4-9.3l2.7-1a261 261 0 0 0 44.2-19.9c4.4-2.3 9-2.5 13.9-3q9.2-.8 18.3-2.7c5.7-1.3 11-1.8 16.9-1.4"/><path fill="#df5b19" d="M670 735h2c.9 2.5.9 2.5 1 6-16.2 32.9-75.7 54.8-107 66q-8.4 2.8-17 5l-1-3a191 191 0 0 1 17.7-7.2l2.2-.8q5.9-2.1 12.1-3l4.9-1.6 2.3-.8 1.8-.6v-3l-1.8.7c-18.8 7-40.9 15-61.2 13.3 2.5-2.5 4.2-2.7 7.6-3.6l3.6-1 3.8-.9a319 319 0 0 0 53.1-19.5c7.8-3.5 15.5-7.1 22.8-11.7q4.9-3 10.1-5.3l2 1 1 3h2v-4l2-1v-3l7.9-4.5 2.2-1.3 2.2-1.2 2-1.2c1.7-.8 1.7-.8 3.7-.8v3h-2l-2 7 4-3v-2h2l.4-1.9c.6-2.1.6-2.1 1.6-4.1l4 2 6-5-1-4h-3c4.6-4 4.6-4 8-4l-1-2z"/><path fill="#72b0d4" d="M231 376c0 5-3.2 9.4-5.5 13.8a95 95 0 0 0-5.3 70.8 131 131 0 0 0 17.6 31.2 24 24 0 0 1 3.2 5.3c1 1.9 1 1.9 3.6 4.5 2.4 2.4 2.4 2.4 2.4 4.4l-2 1 7 2-2 1-1 3-1.4-1.2-1.8-1.7-1.9-1.6a32 32 0 0 0-5.9-3.5c-2.3-2.1-2.3-2.1-5-5l-1.5-1.5a105 105 0 0 1-28-71.3c.6-16.5 5-31 16.3-43.2a63 63 0 0 1 11.2-8"/><path fill="#bdcfcb" d="M346.9 815a92 92 0 0 0 53.4 16.2c9.6.3 18.5 1 27.9 3.2 8.6 2 17.3 2.7 26.1 3.6l3.4.3 3 .3 2.3.4 1 2a38 38 0 0 1-11.7 1.4l-3.1.2h-3.3c-25.3 1-51.3 1.6-75.9-5.6l-3-.9a219 219 0 0 1-45-21.1l-3.3-1.9c-6.6-3.8-6.6-3.8-7.7-6.1 14.8-2.3 23.9-.8 35.9 8"/><path fill="#13346a" d="M416 512c102.4-1.4 102.4-1.4 134 15l-1 2c2.4 1.4 3.5 2 6.3 1.6l1.7-.6 1 3q2.4 2.3 5 4.2l2.9 2.2 2.1 1.6-1 2-5-3v-2l-1.8.6c-2.7.5-3.6 0-6-1.5-3.8-2-6.9-2.7-11.2-3.1l8 4c-5 1.2-5.6.2-10-2-7.9-2.4-7.9-2.4-12-1q-3.3-1-6.4-2.2c-9.3-3.3-18.9-5-28.6-6.8l2 1 1 4c-3.4-1-6-2-9-4-4-.6-7.3-1-11.2-.8l-2.8-.2-1.6-2c-3.3-2.8-6.6-3-10.7-3.6l-2.5-.4a503 503 0 0 0-31.2-3v-2q12-.2 24 1l1-2h-36z"/><path fill="#bdcfcb" d="M363 788c3.5.4 5 2 7.4 4.4 22.5 22.5 58.1 34 88.6 39.6v1c-77.1-2.8-77.1-2.8-98-20l-3-2 2-1c-4.7-4.9-4.7-4.9-7-6l1 4c-2.2-.4-2.2-.4-5-2q-2.5-4.3-4-9l1-2 1.4 2 1.6 2h2l-3-4 1-2a32 32 0 0 1 9.5 8.4q6.1 6.7 14.5 10.6l-2-3.2-2.4-4.3-1.3-2.1c-2.8-4.9-4-8.7-4.3-14.4"/><path fill="#bed0cc" d="M578 112a93 93 0 0 1 51 24l6.5 5.6a8 8 0 0 1 2.5 3.4q6.3 3.9 13 7c-2-4.1-4-7.5-7-11 2.6-1 3.7-1.1 6.4-.1 6.5 3.6 12.1 7.8 17.7 12.7q3.9 3.2 7.9 6c3.9 3.1 6 5.9 8 10.4l1.2 2.6c3 7 3 7 1.8 10.4l-3-5.4c-1.9-3-5-4.8-7.8-7q-2.2-1.6-4.5-3.5c-9-7-18.7-11.7-29.4-15.6l-3.7-1.4c-29.2-10.7-29.2-10.7-40.3-12.5-2.3-.6-2.3-.6-4-3l-1.6-3.1c-3.8-6.9-8.1-13.1-14.7-17.5z"/><path fill="#7eb4d2" d="m200 637 2 1-.1 3.5c0 4.4.9 8.2 2.1 12.5h3l-1 3 1 2 2-4h2l.8 2.7 1 3.5 1 3.5q1.6 4.3 4.2 8.3l1.6 3.8c1.4 3.2 1.4 3.2 2.4 4.2v-34h-2l1-2h2q1.2 8 1 16h3a159 159 0 0 1 2 28h2l2 4 1 1.7q1.9 4.5 3.6 9.1c4.2 11 10.5 20.7 17.4 30.2-19.2-8.5-39-33.2-51-50l-2.5-3.4q-7-9.5-13.2-19.4l-1.3-2-3-5.2 1-2c6 4.8 10.3 9.8 14.4 16.3 4.3 6.4 8.4 12.2 13.8 17.7q2.8 3.2 4.8 7a86 86 0 0 0-6-14.5l-1.5-3.1-1.5-3.2c-3.8-7.9-3.8-7.9-5.2-10.3-.8-1.9-.8-1.9-.8-4.9q-1.6-4.7-3.3-9.5c-2.2-6.2-2.2-6.2-.7-9.5z"/><path fill="#2a65a0" d="M567 165c1.8 2.5 1.8 2.5 3 5-2.8 2.8-5.9 3-9.6 3.8-18.6 4.1-36 12-51.4 23.2l-2.6 1.8a170 170 0 0 0-23.1 20c-2.3 2.2-2.3 2.2-4.7 4-3 2.5-5 5.2-7.2 8.3q-2.4 3.2-5.4 5.9l-4.5 5.6C460 244 460 244 457 244l-1 2h-3l-.8 2c-1.2 2-1.2 2-4.2 3l-1-2h2l.8-2.9c1.2-3.1 1.2-3.1 4.2-5.1h3l.2-3.6c.6-4.8 2.6-7.5 5.7-11.2l1.5-1.7 7.5-9c5-6.2 5-6.2 7.1-8.5h2l1-3 5-3 1.5-1.6c2-1.8 4-2.5 6.5-3.4v-2c1.6-1.2 1.6-1.2 3.8-2.4l2.5-1.4 2.6-1.5 2.5-1.4a217 217 0 0 1 33.8-15.7c19.1-7.4 19.1-7.4 26.8-6.6"/><path fill="#76b1d4" d="M283 395c2.4 3.5 3 7 3.8 11a76 76 0 0 0 7.2 20l1.8 3.4a129 129 0 0 0 41.4 46 14 14 0 0 1 3.8 5.6c-3.8-1.4-6.6-3-9.8-5.6L327 472a67 67 0 0 0 22.3 19.9q2.6 1.8 4.7 4.1c-13 .9-28-11.4-38-19l-2.3-2.3c-1.7-1.7-1.7-1.7-3.7-2.2-5.9-1.5-10.8-10-14.1-14.8A119 119 0 0 1 283 395"/><path fill="#c5d7d4" d="M275 455c3.4 3 5.4 6.3 7.7 10.2 12.3 20.6 36.7 32.6 59.3 38.6a608 608 0 0 0 25.5 5.8c9 1.9 17.6 2.7 26.8 2.3l5.7.1 2 3h-2.6l-9.7.4-4.1.1q-10.7.2-21.3 1.3a80 80 0 0 1-60.7-16.8 86 86 0 0 1-28.6-43z"/><path fill="#d44a14" d="M558 531c10 1.1 22.8 14 28.8 21.4 10.4 13.2 21.4 28 25.2 44.6l-1 2c-3-2.7-5.1-5-7-8.5a33 33 0 0 0-7-8.5l-2.4-3c-2-2.4-3.4-3.6-6-5.2L586 572v-2l-3-1v-2l-1.8-.8c-2.2-1.2-2.2-1.2-3.6-2.9L576 562c-2.7.3-2.7.3-5 1l-1-4 1-1-5.4-4-3-2.2C560 550 560 550 558 550v3l2 1-1 4-1-2c-2-.9-2-.9-4.6-1.6l-2.5-.8-1.9-.6v-1l2.4-.4c2.6-.6 2.6-.6 4.6-1.6v-2h-4l-2-3-3.8-2-2.3-1-2.3-1-4.7-2.2-2-.9c-1.9-.9-1.9-.9-4.9-2.9v-2c4.3-.3 7.2.7 11.1 2.5 5.6 2.5 5.6 2.5 8.9 2.5l-10-4v-1c7 .3 12 1.5 18 5l2-2v2h2v2l5 2-2.2-2.2-7.8-7.8z"/><path fill="#1a3667" d="m297 804 4 2 1-2 1.4.9A298 298 0 0 0 368 837l-1 2-11-3v2l3 1v3l1.7-.6c2.8-.5 4.6-.3 7.3.6 1.3 2 1.3 2 2 4h-2l1 2h3l-1 5 5 1v2h2l1-2h6l-1 2-3 1 8 3c-4.6 1.1-5.7.7-10-1l-3.4-1.4-7.6-3a293 293 0 0 1-76-42.6l1-2 6 4 4-3-3-1v2h-2a36 36 0 0 1-1-8"/><path fill="#1c3869" d="M521 63v1h39v4l3-1 1-2h4.8l2.6-.1c2.4 0 4.3.4 6.6 1.1l-1 3-1-2h-2v3h-4v-2h2v-2h-4v5h6v1h-8v-3l-2-1v3h-23l4-3 1-1c-2.9-.6-2.9-.6-6-1l-2 2c-1.9-.3-1.9-.3-4-1l-2.2-.6-1.8-.4v2h-2v-2l-7 1-1 3h2v-2h4v2h5l1-2v2h8v1h-27l-4 1-1-4-2 2v2a27 27 0 0 1-15-1l-3-3v4q-3.1-.6-6-2v2h-4v-2l-2 1-1 3c-2 0-2 0-3.6-1.5L470 71c.3 1.9.3 1.9 1 4l3 2-1.8.2c-3.6.3-6.7.6-10 2-2.6 1-3.7.7-6.2-.2l4-1v-2q-4.5-1.2-9-2l-1 3 2 1h-4l1 3-3.2.4q-4 .6-7.8 1.6v-4h2v-2l4-1v2h3l-1-3-11.5 2.8-5.8 1.5q-8 1.8-16 4.4C409 85 409 85 406 85l1 7h-3l-2-4c-8.3 2-16 4.8-24 8l-7.2 2.8c-5.6 2-5.6 2-7.8 3.2l-1 4h-2v-2a54 54 0 0 0-12 5l-2-1c6-4 12-7 18.6-9.8l3-1.3A510 510 0 0 1 434 75l3.1-.8a399 399 0 0 1 66-11l2.3-.3 6.1-.5 3.6-.3c2.9-.1 2.9-.1 5.9.9"/><path fill="#bcceca" d="M654 459a50 50 0 0 1 27 13.6q10.2 7.6 21 14.4l-1.4-1.9c-1.6-2.1-1.6-2.1-3-4.4a57 57 0 0 0-6.4-8.1C690 471 690 471 690 469c7 2 11.6 6.2 17 11l1.7 1.5c10.5 9.1 19.9 19 26.3 31.5v4c-4.5-1.6-8.2-4-12.1-6.7l-4-2.7-2-1.4c-24.6-16.5-24.6-16.5-36.5-20.7-5.5-2.1-7.7-5-10.7-10-2.9-4.2-6.8-7.2-10.7-10.5l-5-5z"/><path fill="#fea337" d="M629 848a982 982 0 0 1-32 8.6l-4.1 1a264 264 0 0 1-38.8 7.5l-2.3.3-6.8.6-3.7.3q-15.2 1-30.4.8h-2.2q-15 0-29.7-1.1l1-2q4.3-1.4 8.6-2.4l2.6-.6q10.6-2.5 21.3-4.2l3-.5q10.2-1.6 20.5-2.3v2c-8 3.3-15.5 5.9-24 7v2l2-.5q4.3-.7 8.5-.6a84 84 0 0 0 29-7c18.5-6.8 36.6-8 56-8.6h3.9l3.3-.1c3.3-.2 3.3-.2 7-.7 3-.5 4.6-.5 7.3.5"/><path fill="#bad0d1" d="M258 428c2 3 2.4 4.2 2.9 7.5l.4 2.8.4 2.9A108 108 0 0 0 288 497l2 2.3a106 106 0 0 0 39.9 25.8c2.1.9 2.1.9 3.1 2.9a67 67 0 0 1-32-6l-2.6-1c-8-3.1-15.2-8.4-22.4-13l4-1v2l1.8.1 2.4.3 2.4.2c2.5.4 4.3 1.2 6.4 2.4l-1.5-1.4C290 509 290 509 290 507h-2v-2l-2.1-.6a26 26 0 0 1-8.7-7.7l-1.6-2c-10.5-12.7-21-30.3-20.7-47.5v-2.4l.1-1.8h1l1 5c1.1-5.5 1.1-5.5.5-7.9-.6-2.6-.4-4.7 0-7.4l.3-2.6z"/><path fill="#e05d1a" d="M875 324c2 2.9 2.5 4.4 3.2 7.7l.6 3 1.3 6.3a327 327 0 0 1 5.9 56l4 1q.9 2.9 1 6l-2 2 1-1h2v-2.2c0-5 0-9.8 1-14.8l-4 1 1 1v6h-4v-10l3-.4 3-.6 1-2-7-1c-.2-6-.2-6 0-8l2-2h-2v-4h2l3 5.3c1 1.7 1 1.7 3 3.7 4.2 26-1 55.2-5 81l-.4 2.7c-.9 3.3-2.9 4.4-5.6 6.3-4.9-1.7-4.9-1.7-6-4 .2-2.1.2-2.1.7-4.8l.5-3 .6-3.3a290 290 0 0 0-3-118.4c-.8-3.3-1-6-.8-9.5"/><path fill="#de601d" d="M836 267c3 2.6 4.4 5.6 6.1 9.2l.9 1.8 2.7 5.7 1.8 3.9 4.5 9.4h3v-4l3 1c1 5.9 1 5.9 1 7l1-3h4a34 34 0 0 1 8 27l-2 .4-2 .6-1 2-1-6h-4l-1 2-2-5 .6 2.3c15 56.8 21.6 131.9-9 184.9L847 512l-1-2 2.2-4.9c6-14.2 7.3-29.9 8.4-45.2q.4-5.5 1.4-10.9h1c.1 11.4.2 22.7-1 34 6-22.6 9.6-45.6 10-69v-2.7c1.4-47.3-7.5-95.3-29.6-137.5-2.4-4.6-2.4-4.6-2.4-6.8m17 32 1 2Z"/><path fill="#bfd1cc" d="M407 207q4.9 4.5 8.8 10l1.8 2.4c1.6 2.9 2 5.3 2.4 8.6l-2.3-1c-9.3-4-17.6-6.4-27.7-7l-3-.2a65 65 0 0 0-27.7 5.3c-2.3.9-2.3.9-5.3.9v2h-9v-3c4-3.2 8.2-5 13-6.7l3.7-1.2c4.9-1.6 9.1-2.2 14.3-2.2h10.4l8.6.1c-4.8-8.2-10-10-19-13q-4-.9-8-1l-7.5-.6-6.5-.4c12.4-12.4 41-1 53 7"/><path fill="#1c4074" d="M179 692c3.9 3.6 7 7.6 10.3 11.8q3.2 4.2 6.7 8.2l-1 2q7.5 11.6 16.5 21.9c3.5 3.9 3.5 3.9 3.5 6.1l3 1 2.4 3c2.6 3 2.6 3 4.8 4 2.6 1.4 2.7 3.3 3.8 6a62 62 0 0 0 5 5l2 2.2c2.2 2 4.2 2.9 7 3.8v3l4 2v2h2l1.8 2.4c2.5 3 3.5 3 7.2 3.6l2 4 5 5 2-4-6-2c1.9-4.7 1.9-4.7 3-7l1.3 1.3c6.8 6.4 14.3 11.4 22 16.6l2.3 1.5 5 3.2 2.5 1.6 2.3 1.4 1.6 1.4v3l-3-1v7h2v-2l3-1 1 3-3 1-2 2-2.8-2c-3.2-2-3.2-2-6.2-2l-6.5-4.4-1.9-1.4q-8.5-6.3-16.6-13.2l-1.6-1.4a570 570 0 0 1-34.7-31.8l-2.6-2.5q-7.3-7.4-14.1-15.3l-1.6-1.8a266 266 0 0 1-26.8-37.8q-.8-1.5-2-3l-1.5-2.5C179 694 179 694 179 692"/><path fill="#f5f6e9" d="m642 655 1 4h4c-1.7 25-27.2 52.1-45.2 67.8l-1.8 1.6-4.3 3.7q-8.8 8.4-18.7 15.5l-2.5 2q-1.2.7-2.4 1.7l-2.2 1.6C568 754 568 754 565 754l4.5-4.6 2.5-2.5q3.3-3.2 6.9-6.3 17-14.8 30.3-32.8 3.2-4.4 7-8.4c12-13.1 20.3-27.6 25.8-44.4"/><path fill="#3976ae" d="m238 563 2 1c0 3 0 3-1.6 4.6l-2.2 1.7c-5 4.3-8 8-9.2 14.7l-2 1 2 5-2 1-1 3 3-1v-2.2c1.4-4.1 4.4-5.6 8-7.8l2 1-1 3h2c1 3 1 3 .4 4.8l-1 2-1.2 2.2-1.1 2.2-1.2 2.3-2.9 5.5-5-3-1 2v-2l-6 1c.6 3.3 1.6 4.7 4 7l1 3c-2.2 1.6-2.2 1.6-5 3-2.3-.8-2.3-.8-4-2 1-2 1-2 3-4l-2-5h2v-5h-3l1 4h-2l-1-5 2-1-5-2-1 3h-2l-1 13 2 1-2 1 1 25c-5.5-11-4.6-29.5-1.1-41.2A77 77 0 0 1 238 563"/><path fill="#1d477e" d="m127 431 1.4 1.5 1.6 1.5c2.2-.3 2.2-.3 4-1v5h-6v2l5-1c-1 3-1 3-4 5v2h2l2-2c1 2.8 1.1 4.4 1.1 7.3v8.5l-.1 12.4v12.2q-.1 10.3 1 20.5c.3 4.7.3 4.7-1.5 7L132 513l-1-5c-3 2-3 2-3.7 4.6l-.3 2.4h-1l-.2-2-.2-2.4-.2-2.5-.4-2.1-2-1q-1.3-20.5-1-41h1l1 12 .2-5.8c.7-26.2.7-26.2 2.8-39.2"/><path fill="#326ca6" d="M272 500h3l-1 6 3.3-.1c3.4 0 5 .3 7.7 2.1h-8c16.7 10.3 16.7 10.3 24 13l2 .7c9.8 3.8 18.3 6.3 29 5.3l-2.9-1.3c-22.6-10.4-22.6-10.4-26.1-15.7l-2-3h2c1.5-2.6 2-3.9 2-7l2 1.4a91 91 0 0 0 26.9 13c2.1.6 2.1.6 5.1 2.6l4 2c-1.9 4.9-1.9 4.9-3 6l3 2a57 57 0 0 1-20 5l-4 .2c-8.5.2-16-.2-24-3.2l-2-.7-14-5.3c3.4-1.1 4-.9 7.2.4l2.5 1 2.6 1A65 65 0 0 0 316 530l1-2h-10v-2l-1.8-.7-8-3.2-3-1.2-2.6-1-2.5-1c-2.6-1.1-4-1.9-6.1-3.9v2h-2v-4c-1.6-1.7-1.6-1.7-3.8-3.2l-2.2-1.6c-2-1.2-2-1.2-5-1.2.9-4.7.9-4.7 2-7"/><path fill="#215692" d="M194 713c3.6.6 5.2 1.9 7.7 4.5l2.1 2.2 2.3 2.3a156 156 0 0 0 17.9 16.2 14 14 0 0 1 4 5.8c5.5 7 12 14.5 19.3 19.6l1.7 1.4v3h3c2.2 1.6 2.2 1.6 4.5 3.8l2.3 2.2 5.2 5-2 4 6 2-2 1-1 4-7-7v-3l-3 1c-3.2-2.3-3.2-2.3-6-5v-2l-2.3-.7c-3-1.5-3.8-2.6-5.7-5.3l-5-4c-2.8-2.6-2.8-2.6-5-5v-2l-3-1-.9-2.4c-1.4-3.3-3-3.8-6.1-5.6l-4-5-2.3-2.3C194 720 194 720 194 713"/><path fill="#b9d0d2" d="M239 495h2c1.5 1.5 1.5 1.5 3.2 3.6 9 10.5 20 17.5 32.7 22.6l3 1.2c21.3 8.7 21.3 8.7 30.1 8.7h6.8q5.6.2 11.2-1.1l1 2-1.6.4a88 88 0 0 0-18.7 7.7q-5.6 3-11.7 4.9l1-3-2-3v-3l5 1v2c6.8-.9 6.8-.9 9-2l-4-3v4h-4c0-2 0-2 2-4l-7-1v-2h-4.3l-2.4.1c-2.3-.1-2.3-.1-5.3-1.1v2a68 68 0 0 1-43-22q-2.1-3-4-6a30 30 0 0 1 9.6 6.8l1.4 1.2 2-3-7-2 3-1-3.4-3.8-2-2.2c-1.6-2-1.6-2-2.6-5"/><path fill="#edf2ea" d="m442 277 1 2-1.9 5.4c-8.7 23.4-7.5 48-7.1 72.6l-3-1v21c-2.6-2.6-3-5-4-8.6l-1.1-3.6c-7.3-30.8 1.1-61 16.1-87.8"/><path fill="#bfcfc9" d="M608 450c4.4.9 7 1.8 10.3 4.9 6 5.4 13.3 7 21 8.9 11 2.8 21 7.8 27.7 17.2l-3.2-.8-11.5-2.7-5.9-1.4C636.7 474 627 473 617 472l1-2-2.4-1.9-3-2.4-3.1-2.4C607 461 607 461 606 458h2c0-.4 0-.4-.6-2.3-.4-2.7-.4-2.7.6-5.7"/><path fill="#bed0cc" d="M274 327c.7 2.1.7 2.1 1 4l-3 .9c-10.4 3.2-19.1 6.3-25 16.1-3.7 3.8-7.8 3.5-12.7 3.7h-2.5q-2.9.2-5.8.3c2.9-9.9 10-17.6 18.8-22.6 10-5.3 18.8-9 29.2-2.4"/><path fill="#f8f9ed" d="M837 305c9.8 12.2 14.2 28.1 18 43l.6 2.3c6 24.4 3.6 53.2-.6 77.7h-1v-2.8c-.7-39.6-5-77-16.5-115-.5-2.2-.5-2.2-.5-5.2"/><path fill="#4a75a3" d="M674 128c6.1.5 11 3.3 16.4 6l2.8 1.5 6.8 3.5v3h-3v2l2-.7c4-.4 6.5.9 10 2.7l2 2 6 3v2l2.7 1.7q6.6 4.1 9 11.5l.3 1.8-3 1-1.6-2.2c-2.5-3-5.1-4.8-8.4-6.8l1.9 1.8 2.5 2.4 2.4 2.4c3 3.3 4.2 5.2 4.3 9.7l-.1 2.7-2 1c-4.5-3-6.4-6.3-8.3-11.2l-.8-2-1.9-4.8-3 4v-2l-2.4.2-2.6-.2-2-3h6l-2-1c-.7-2-.7-2-1-4l1-2-4-2 4-1c-3.1 0-5.1.2-8 1l-4-7v7h-2l-1-2-5-1 5-6-3-1v2l-3-1v-5h-2l-1 2v-2h-4v-2h-2l-.3-1.9c-.7-2.1-.7-2.1-3.7-4.1z"/><path fill="#d5c29c" d="M658 512c16.7 5 35.2 14.9 44.3 30.2 2.7 5.2 2.7 5.2 2.7 7.8-4.1-.3-7.1-1.5-10.7-3.4A41 41 0 0 0 672 541l-.3-2.6a34 34 0 0 0-12-23.8L658 513z"/><path fill="#12356b" d="m492 506 2.6.5q4.8.7 9.4.5c35.7-.6 35.7-.6 45 5l-5 1 8 1 1-2 3 2-1 2h-3l-1 3h-3l4 3a307 307 0 0 1-29-4.7l-3.2-.6c-2.8-.7-2.8-.7-4.8-1.7-2.6-1.3-4.8-1.5-7.7-1.8l-3.5-.3-3.8-.4-4-.4a817 817 0 0 0-37-2.5q-10.5-.4-21-1.6v-1q15.6-.1 31 .6 11 .6 22 .4z"/><path fill="#f9f9ed" d="M600 590c3.7 3.3 5.9 7 8 11.4l1 2.2a103 103 0 0 1 3 75.8 66 66 0 0 1-10 18.6c-1.4-2.8-.4-4.3.5-7.1l.8-2.1c10-31 8.5-62.2-1.7-92.8z"/><path fill="#70aed4" d="M333 392c12 4.3 16.8 14.3 22 25l4.1 8.4 1 2c3 6 6.5 11.2 11.3 16l1.6 1.6v2a57 57 0 0 1-14-8l-2.5-1.8a51 51 0 0 1-14.6-21.3l-2.4-5C333 397 333 397 333 392"/><path fill="#fca33a" d="m782 508 1.8 1.4A49 49 0 0 0 796 516l2-1 2 1 .3 2.3c1 3.6 2.7 4.6 5.7 6.7v-2l-3-1 2-2h3l2 8h3l-1-4 8-3-4-1v-2h4v-2l2 1 1 3 1-4 4 1q-1 5.6-3 11h-3v-2h-6v2h-2v4h-2v-2h-3l1 4h4l1 2 1-2h2v2l2 1-2.4.7c-2.6 1.3-2.6 1.3-4 3.6-.7 3-.6 4.8.4 7.7l2 1-1 3-3-1-1 5c-2.5-3.8-2-6.4-1.6-10.7l.1-2.1.5-5.2-2-1-1 4c-.1-4.7-.1-4.7 1-7-1.7-1.8-3-3-5.2-4.2a37 37 0 0 1-8.1-7.9L790 518l-1 3 2 .3 2 .7 1 3 2 1h-2v2h2v2h2l4 5 2 2-2 2-2.2-2.5-3-3.2-1.4-1.6q-3.5-4-7.8-7.4L785 522c.1-3.3.1-3.3 1-6h-2v5l-3-2 1-5h2v-2h-2l-1-3z"/><path fill="#6aaad2" d="m411 481 2.6.9A160 160 0 0 0 458 490v1l25 2v2l6-1 3 4 1-3 3 1v2h2l1-2 5 5c-10.5.4-20.8-.9-31.2-2l-5.5-.6L454 497v-1l5-1q-10-1.5-20.1-1.6l-2.7-.1-2.4-.1c-1.8-.2-1.8-.2-2.8-1.2l-9-.1h-2.6q-7.7 0-15.4 1.1l2-1-1-1.7c-1-2.3-1-2.3-1-6.3l8 2 1-2-2-1z"/><path fill="#bccfcb" d="M274 294.9c5-.2 9.2.7 14 2.1v1l-2.2.5c-17.3 4-17.3 4-23.2 10a29 29 0 0 1-9 5.8l-3.6 1.8-2 1q-5.4 2.5-10.7 5.2l-2 1a74 74 0 0 0-8.3 4.7l-3-1c4.1-5.4 8.8-9.3 14.2-13.4q5.3-4 9.8-8.6c8-6.2 15.8-9.5 26-10.1"/><path fill="#65a6d1" d="M264 375h1v2.3c-.8 40.6-.8 40.6 4.1 59.2.9 3.5.9 3.5.9 7.5h-2c-2.3-3.7-2-6.7-2-11l-.5-2.4q-.9-5.3-.5-10.6l-5 4-1-1-.6 8.8-.1 2.5-.2 2.5-.1 2.2c0 2 0 2 1 5q-.4 4-1 8l-.9-1.9C256 448 256 448 254 446q-.2-4.4-.2-8.7v-2.6q.1-9.4 1-18.6c.2-3.1.2-3.1 0-6.3.3-5.3 1.6-10.1 3-15.2l.8-3q2.2-8.5 5.4-16.6"/><path fill="#b3cccf" d="M305 447c3.6 1.2 4.2 2.4 6.4 5.4a90 90 0 0 0 23.8 21.3c2.8 2 4.2 4.3 5.8 7.3-3.8-1.4-6.6-3-9.8-5.6L327 472a67 67 0 0 0 22.3 19.9q2.6 1.8 4.7 4.1c-13 .9-28-11.4-38-19l-2.3-2.3c-2-2-3-2-5.7-2.7-1.7-1.6-1.7-1.6-3.2-3.5l-1.6-2C302 465 302 465 302 464h6v4l4 1v2l4-3v2l5 2c-.3-2-.3-2-1-4l-3-1-2-6-2-4h-2c-1.5-1.7-1.5-1.7-3.1-3.9l-1.7-2.2C305 449 305 449 305 447"/><path fill="#3c79b0" d="m283 547-2.2 1.4a105 105 0 0 0-33.1 31.1C246 582 246 582 243 584c-1.8-2.8-2-3.9-1.6-7.2 0-.5 0-.5.6-2.8h2c-1-3-1-3-3-5l3-7-2-1c31-17.4 31-17.4 41-14"/><path fill="#205592" d="m518 62 3 1v1h39v4l3-1 1-2h4.8l2.6-.1c2.4 0 4.3.4 6.6 1.1l-1 3-1-2h-2v3h-4v-2h2v-2h-4v5h6v1h-8v-3l-2-1v3h-23l4-3 1-1c-2.9-.6-2.9-.6-6-1l-2 2c-1.9-.3-1.9-.3-4-1l-2.2-.6-1.8-.4v2h-2v-2l-7 1-1 3h2v-2h4v2h5l1-2v2h8v1h-27l-4 1-1-4-2 2v2a27 27 0 0 1-15-1l-3-3v4c-3.3-.6-4.7-1.6-7-4 25.8-3.6 25.8-3.6 38-3z"/><path fill="#bdcec8" d="M795 561c5.9 1.3 8.7 4.2 12 9q3.6 6.4 4.8 13.6l.3 2.1c1.6 9.6.5 18.3-3.1 27.3q-2.8-5.6-4.3-11.6l-.7-2.2-2-7-1.4-4.7-3-10.6-1.7-5.6c-1-3.6-1-6.7-.9-10.3"/><path fill="#bccfcb" d="M345 262c4.5 3.8 8.3 7.2 10 13 .2 3.3.2 3.3.1 6.8v3.5l-.1 2.7h-2l-1-2.4a33 33 0 0 0-20-19.6q-6.3-1.3-12.8-1.6H317l-5.1-.4 1 3h-3.9q-7.5 0-15.1 1l1-2h2l1-3 3-.6 1.8-.4 4.2-.8 8.8-1.8c9.8-2.3 20.5-3.3 29.2 2.6"/><path fill="#183d72" d="M432 383h2l.8 2.3A100 100 0 0 0 458 423l3.3 4c3.6 4.3 8 7.4 12.4 10.7q2.2 1.6 4.3 3.3v2l-4-1-1 5 5.8 5.5c2.6 1.8 4 1.8 7.2 1.5v3l4 1 1-2c1.1 3.8 1.1 3.8 0 6a96 96 0 0 1-42-36v-2h3l-1.3-1.4c-3.2-3.5-5-5.8-5.7-10.6-1.9-3.3-1.9-3.3-4-6h-3l.7-1.6c.4-3.5-1-5.6-2.6-8.8A36 36 0 0 1 432 383"/><path fill="#637998" d="M728 193a21 21 0 0 1 10 10c.6 4.4.3 6.4-1.9 10.4-2.4 3-3 3.4-6.7 4A20 20 0 0 1 718 212a14 14 0 0 1-3-10.6c.5-3.7.9-4.3 3.7-7 3.6-1.5 5.4-2 9.3-1.4"/><path fill="#bccec9" d="M808 624c1.8 0 1.8 0 4 1 4.6 7 3 14.8 1.5 22.7A50 50 0 0 1 797 672h-2q1.3-6.4 3.3-12.5 3.4-11.6 6-23.5 1.3-6 3.7-12"/><path fill="#d6c9a9" d="m665 656 2 3 3-1 1-2c.2 5.2-.4 9.3-2 14.3l-1 3.6c-1.3 4-2 6.2-5 9.1l-1.9 3.6-1 2.1-2 4.3c-2 4-4 7.7-7.1 11h-3v4h-4l-1 2c-1.2-3.8-.7-4.5 1-8l7-12c5.8-9.7 5.8-9.7 6.8-15 1.3-6.7 4.4-12.8 7.2-19"/><path fill="#e4ebe3" d="M284 494q6.3 5.4 12.4 11a105 105 0 0 0 33.5 20.1c2.1.9 2.1.9 3.1 2.9a67 67 0 0 1-32-6l-2.6-1c-8-3.1-15.2-8.4-22.4-13l4-1v2l1.8.1 2.4.3 2.4.2c2.5.4 4.3 1.2 6.4 2.4l-1-3 6 1-2-2-1.3-1.3-6.5-6.4-2.4-2.3c-1.8-2-1.8-2-1.8-4"/><path fill="#fc9f35" d="M661 494c18.5-1.7 42.8 9.8 57 21 11.6 9.8 26.2 22.3 29.9 37.6l.1 2.4q-5.3-5.1-9.6-11.1c-17.1-22.6-46-44.3-74.7-48.6l-2.7-.3z"/><path fill="#f99732" d="M729 662c2 1 2 1 2.8 2.9a71 71 0 0 1 3 19l.1 3c.5 19.1-1.3 36.4-14.7 51L716 742l-2-1 1-1.4a87 87 0 0 0 11-34.6h1a182 182 0 0 0 1-23h2c2.3-4.6 1.6-7.8.6-12.7l-.5-2.1z"/><path fill="#c5cab8" d="M610 510c13.6.6 29 5 39 14.6 3.7 4 6.6 7.9 7 13.4-1 2.8-1 2.8-2 5l-2-3c-10.4-14.5-28.2-20.7-45-24 3-2 3-2 5-2v-3z"/><path fill="#6d829d" d="M712 108q4.5 2.4 7 7c.4 5.3.5 8.7-3 13a13 13 0 0 1-11 2c-3.2-2.5-5.7-5-7-9-.5-4.2-.5-6.3 1.9-9.9 3.6-3.6 7.2-4 12.1-3.1"/><path fill="#cc8758" d="M557 549c4.3.5 6.2 3 9 6l-1 2 2 2q-.4 3.5-1 7v2l1-1h3l2 3 3 1-1.2 1.7-.8 2.3c2.3 4.6 5.7 8 9.2 11.8q2.3 2.8 3.8 6.2c-2 2-2 2-4 2.2l-6-.2-1 3-.7-2.6c-3.3-10.9-7-18.6-14.3-27.4l-1.6-1.9-3.4-4.1 1-1v-5l3 1 1-3-3-1zm18 43 1 2Z"/><path fill="#71afd4" d="m355 469 5 1v2h2v2l-4 2 2 4v-4c1.7-.8 1.7-.8 4-1l2.4 2.4c2.6 2.6 2.6 2.6 6 3l2.6-.4-1 5 4 1v2h-2v3l-6-1v-2l-4 1v2l4 2 2-1v2l4-1v3l3 1c-5.2 1.9-8.7-.1-13.4-2.3l-2.4-1.1a97 97 0 0 1-15.2-8.9l-1.8-1.2c-2.9-2.2-5-4-6.2-7.5l2.8.5c3.2.5 3.2.5 7.2.5l1 4 3-1 1 2-1 2 2 1v2h3l-1.5-2.8C356 481 356 481 356 478h-2c-1.2-1.7-1.2-1.7-2-4 1.4-2.7 1.4-2.7 3-5"/><path fill="#294877" d="m436 310 1.4 2 1.6 2h2l1.5-2 1.5-2h2l-.8 3.8-1.2 5.2-.6 2.7q-5 22.4-6.4 45.3l-2-1v-2h-2l-2 7h-1q-.2-7.6 1-15h2v-20l-.1-7.4v-2.3c0-11.6 0-11.6 3.1-16.3"/><path fill="#225895" d="M476 476q20.5 1.1 41 3v1h17.3q9.8.3 19.7-1v2h-2l-.7 2c-1.3 2-1.3 2-3.2 2.6l-5.4.2q-4 .1-7.7.6a151 151 0 0 1-37.2-2.3l-5.8-1q-7-1-14-2.1v-1h16v2l1-1v-2l-3.1-.1-6.2-.4c-3.7-.2-6.6-.5-9.7-2.5"/><path fill="#5d85ad" d="M453 432q6.4 5.4 12.5 11.2a169 169 0 0 0 16.5 13.4c4.6 3.4 4.6 3.4 8 3.4h2l-1-3-2.4.6-2.6.4-3-3-1.8-.9c-2.3-1.2-4-2.5-6-4.2l-1.8-1.7-1.4-1.2 2-5c4 1.3 6.9 3.3 10.2 5.8q3.7 2.5 7.8 4.2v2l3.7.9A60 60 0 0 1 509 460l-3 2-2-1-1 3-3-2v-2h2v-2h-4v2h-2l-1 1 5 3-2 2a57 57 0 0 1-16-4l1-3-2.6-.7A61 61 0 0 1 453 434z"/><path fill="#fbfbef" d="m310.4 175.3 1.6.7c.8 3.1.8 3.1 1 7-3.3 4.7-7 7.8-11.8 10.9l-2 1.3c-8 5-17 10.7-26.2 12.8 28.3-33.7 28.3-33.7 37.4-32.7"/><path fill="#5394c4" d="m241 479 4.3 2.8 2.4 1.6a33 33 0 0 1 5.3 4.6l-4 1 3 1v2h-2v4h-2v2l4 1-1-5c2.3-2 2.3-2 5-4a9 9 0 0 1 4 1v3l3 1c-1.2 10.4-1.2 10.4-3 14-7.2-.4-7.2-.4-10.6-3.2L247 503l-3.4-3c-2.6-3-2.6-3-2.6-5.8 1-2.2 1-2.2 3-3.2l-4-1-1 2a17 17 0 0 1 0-10z"/><path fill="#977767" d="m855 293 3 1c1 5.9 1 5.9 1 7l1-3h4a34 34 0 0 1 8 27l-2 .4-2 .6-1 2-1-6h-4l-1 2-.4-2-.6-2-2-1q-1.1-3.3-2-6.7l-1.1-3.7c-2.2-9-2.2-9-.9-11.6z"/><path fill="#c0826a" d="M583.3 437.7c3 2.2 4.4 4.6 5 8.2.3 4 0 5.7-2.4 9a14 14 0 0 1-9.9 3.1c-3.7-2-5.6-3.5-8-7-.4-5.4-.4-8.6 3-13 3.7-1.9 8.4-1.5 12.3-.3"/><path fill="#13376e" d="m172 313 1 2-2.7 5.4c-20 38.3-30.8 82.8-35.3 125.6-3 1-3.9 1-7 0 1.2-2.5 2-4 4-6h-4v-2h6l-2-4-3 1-1-5 2-1 4 2 1-11h-2l2-4 2 1v-3l-2-1 2-2 2.2-8 .6-2.1c1.3-5.5 1.3-5.5.2-8.9v-3l1.4-1.4c2-2 2.5-3.8 3.3-6.6l.8-2.6c.5-2.4.5-2.4.5-5.4l-2 1-1-5 1 2h2v-5h4l.3-1.7a93 93 0 0 1 5-16l.9-2.4c11.4-28.5 11.4-28.5 15.8-32.9"/><path fill="#bdd0cc" d="M466 150c11.1-.8 21 1 29.6 8.4 4.5 4.2 7.3 8.2 7.6 14.5l-.2 3.1h2l1 4h-6l-.4-1.7c-1.6-6-4-10-9.4-13.4l-5.9-3-2.1-1A77 77 0 0 0 466 155z"/><path fill="#f5f7ed" d="M407 237c2.9 1.3 4.4 2.3 6.3 4.8 1 3.3 1.1 5.8.7 9.2a13 13 0 0 1-8.5 6c-4.8 0-6.8-1.5-10.3-4.6-1.9-3.8-2-7.3-1.2-11.4 3.5-4.5 7.6-4.9 13-4"/><path fill="#87b8d1" d="M490 110c9.6 1 18 2.6 25.4 9.2 2.3 4 3.5 8.3 4.6 12.8-1.6.7-1.6.7-4 1q-3.6-1.4-7-3.3l-1.9-1-5.1-2.7-2.4-1c-1.6-1-1.6-1-2.6-4l-2-2 1-1h-4v-2h-2c-1.1-3.7-1.1-3.7 0-6"/><path fill="#225b99" d="M493 182c-5.5 9-13.7 14.4-22 20.5l-5.5 4.4C463 209 463 209 462 209l-1-4.7-.6-2.7c-.4-2.6-.4-2.6-.4-6.6l13.8-7 4.2-2 5.3-2.6 3-1.5c2.8-1 4-1 6.7.1"/><path fill="#bcceca" d="M722 595c10.2 1.5 18 10.1 24 18 4.7 7 4.8 14.7 5 23h-3a59 59 0 0 1-6.7-11.6 85 85 0 0 0-17.6-25.6C722 597 722 597 722 595"/><path fill="#a55e49" d="M300 758v9l2 1 1-5h1l.8 3.3c1.1 3.5 1.5 4.5 4.2 6.7q5.2 1.7 10.6 3c4.8 1.3 8.4 3 12.4 6l-1 2h-3l-1 2h-3v3l2.2.6c3.7 1.9 5.3 4.1 7.8 7.4a49 49 0 0 1-15-7l-1-3h-2l-3-7-1 3h-2l-2-4 2-3h-2l-1 3-1.2-1.4c-1.8-1.6-1.8-1.6-3.8-1.9-2-.7-2-.7-3.7-3.9a19 19 0 0 1-1.3-9.8c1.5-2.4 1.5-2.4 3-4"/><path fill="#62a5d1" d="M240 562h4l-2 7 2 2q-.5 3.5-1.6 7c-.4 2-.4 2 .2 5 .4 3 .4 3-1 5.4-1.6 1.6-1.6 1.6-3.6 1.6v-2h-2l-1-3c-5.8 4.3-5.8 4.3-6.9 7.8l-.1 2.2h-4l.5-1.8c.8-3.4.4-6-.5-9.2l3 1 .1-3c.7-5 3.6-7.6 6.9-11l2.3-2.4c1.7-1.6 1.7-1.6 3.7-1.6l-1-3z"/><path fill="#d2ded7" d="M863 547c2.5 3.7 2.6 6.7 2 11a17 17 0 0 1-7.4 9.5c-3.9 1.6-5.6 1.8-9.6.5-2-2-2-2-2.4-4.6q1.4-9 8.9-14.4c2.9-1.9 5-2.8 8.5-2"/><path fill="#255f9c" d="m252 596 1 2-2.3 5.3a84 84 0 0 0-6 22.6c-2 11-3.9 22.3-3.6 33.5-.1 2.6-.1 2.6-2.1 4.6l-1.5-5.4-.8-3.1a61 61 0 0 1 .9-24 161 161 0 0 1 4.4-19c1.3-4.3 3-7.2 6-10.5l2.3-3.3z"/><path fill="#1d4277" d="M512.1 63h6.9v2l-13.3 1.3-4.6.4-6.5.6-4 .4q-4.8.5-9.6.3l1 4h-4v-2l-2 1-1 3c-2 0-2 0-3.6-1.5L470 71c.3 1.9.3 1.9 1 4l3 2-1.8.1c-3.6.4-6.7.7-10 2-2.6 1-3.7.8-6.2-.1l4-1v-2l-1.7-.4A59 59 0 0 1 451 73l1-2a136 136 0 0 1 11.4-2.5c16-3 32.5-5.7 48.7-5.6"/><path fill="#b9cecd" d="m327 452 4 2v2l-2 1 3 1 1-2c2 2 2 2 2 4h-3l2 1.8c2 2.2 2 2.2 3 5.2l1-3c2.6-1.7 2.6-1.7 5-3l1 3h-3l1.5 2.8c1.5 3.2 1.5 3.2 1.5 7.2l7-2 1-2-2-1-1-4 5-1-2 1 1 1 2.2-.2c3.8.3 5.8 2 8.8 4.2l-1 6h-3v4l-2-1-1-4 5-1v-2h-2l-2-2h-3c-2.1 4.6-2.1 4.6-1 8h2l4 9-4 1c-1.5-2.6-2-3.9-2-7l-2 1-2 1c-1-3-1-3 0-6h-2l-1 2a63 63 0 0 1-13.8-12.6l-1.4-1.6c-6.8-8.2-6.8-8.2-6.8-11.8z"/><path fill="#1f477d" d="M590 66c26 5.5 26 5.5 37 12 .8 2.1.8 2.1 1 4l-16-4-1 2-2-1q-2.3.2-4.4.6c-3.6.4-3.6.4-6.6-1.6a40 40 0 0 0-10-3v-1l2.9-.4C594 73 594 73 596 72v-2h-4l-1 2v-2c-7.4-.3-7.4-.3-11 2v-4q5-1.2 10-1z"/><path fill="#e08453" d="M760 474c3.6 3.1 4.8 5 5.6 9.6-.6 3.4-.6 3.4-2.2 5.9-2.4 1.5-2.4 1.5-5.2 1.6A20 20 0 0 1 748 484c-.9-3.1-.6-4.7 0-8 3-4.1 7.6-3.6 12-2"/><path fill="#c58d75" d="M307 727c2.7 2.1 4.4 3.9 6 7 0 3-1.2 4.6-3 7a15 15 0 0 1-6.4 2.5c-3.3-.6-4.7-2.2-6.7-4.8-1.5-2.7-1.5-4.6-.9-7.7 3-4.5 5.9-4.8 11-4"/><path fill="#214374" d="M667.4 191.7c2.6.3 2.6.3 4.4 1.5 1.6 2.4 1.6 4 1.2 6.8-1.2 1.9-1.2 1.9-3 3-3.3-.2-4.6-.6-7-3-.3-3-.3-3 0-6 2-2 2-2 4.4-2.3"/><path fill="#9b7765" d="m861 294 1 2-2-1z"/></svg>